%TF.GenerationSoftware,KiCad,Pcbnew,(6.0.6)*%
%TF.CreationDate,2022-10-10T16:19:53+08:00*%
%TF.ProjectId,NMOS_SWITCH,4e4d4f53-5f53-4574-9954-43482e6b6963,rev?*%
%TF.SameCoordinates,Original*%
%TF.FileFunction,Legend,Top*%
%TF.FilePolarity,Positive*%
%FSLAX46Y46*%
G04 Gerber Fmt 4.6, Leading zero omitted, Abs format (unit mm)*
G04 Created by KiCad (PCBNEW (6.0.6)) date 2022-10-10 16:19:53*
%MOMM*%
%LPD*%
G01*
G04 APERTURE LIST*
%ADD10C,0.125000*%
%ADD11C,0.150000*%
%ADD12C,0.100000*%
%ADD13C,0.120000*%
G04 APERTURE END LIST*
D10*
%TO.C,R10*%
X145703571Y-103551190D02*
X145536904Y-103313095D01*
X145417857Y-103551190D02*
X145417857Y-103051190D01*
X145608333Y-103051190D01*
X145655952Y-103075000D01*
X145679761Y-103098809D01*
X145703571Y-103146428D01*
X145703571Y-103217857D01*
X145679761Y-103265476D01*
X145655952Y-103289285D01*
X145608333Y-103313095D01*
X145417857Y-103313095D01*
X146179761Y-103551190D02*
X145894047Y-103551190D01*
X146036904Y-103551190D02*
X146036904Y-103051190D01*
X145989285Y-103122619D01*
X145941666Y-103170238D01*
X145894047Y-103194047D01*
X146489285Y-103051190D02*
X146536904Y-103051190D01*
X146584523Y-103075000D01*
X146608333Y-103098809D01*
X146632142Y-103146428D01*
X146655952Y-103241666D01*
X146655952Y-103360714D01*
X146632142Y-103455952D01*
X146608333Y-103503571D01*
X146584523Y-103527380D01*
X146536904Y-103551190D01*
X146489285Y-103551190D01*
X146441666Y-103527380D01*
X146417857Y-103503571D01*
X146394047Y-103455952D01*
X146370238Y-103360714D01*
X146370238Y-103241666D01*
X146394047Y-103146428D01*
X146417857Y-103098809D01*
X146441666Y-103075000D01*
X146489285Y-103051190D01*
%TO.C,R11*%
X145528571Y-106301190D02*
X145361904Y-106063095D01*
X145242857Y-106301190D02*
X145242857Y-105801190D01*
X145433333Y-105801190D01*
X145480952Y-105825000D01*
X145504761Y-105848809D01*
X145528571Y-105896428D01*
X145528571Y-105967857D01*
X145504761Y-106015476D01*
X145480952Y-106039285D01*
X145433333Y-106063095D01*
X145242857Y-106063095D01*
X146004761Y-106301190D02*
X145719047Y-106301190D01*
X145861904Y-106301190D02*
X145861904Y-105801190D01*
X145814285Y-105872619D01*
X145766666Y-105920238D01*
X145719047Y-105944047D01*
X146480952Y-106301190D02*
X146195238Y-106301190D01*
X146338095Y-106301190D02*
X146338095Y-105801190D01*
X146290476Y-105872619D01*
X146242857Y-105920238D01*
X146195238Y-105944047D01*
%TO.C,R8*%
X161616666Y-105126190D02*
X161450000Y-104888095D01*
X161330952Y-105126190D02*
X161330952Y-104626190D01*
X161521428Y-104626190D01*
X161569047Y-104650000D01*
X161592857Y-104673809D01*
X161616666Y-104721428D01*
X161616666Y-104792857D01*
X161592857Y-104840476D01*
X161569047Y-104864285D01*
X161521428Y-104888095D01*
X161330952Y-104888095D01*
X161902380Y-104840476D02*
X161854761Y-104816666D01*
X161830952Y-104792857D01*
X161807142Y-104745238D01*
X161807142Y-104721428D01*
X161830952Y-104673809D01*
X161854761Y-104650000D01*
X161902380Y-104626190D01*
X161997619Y-104626190D01*
X162045238Y-104650000D01*
X162069047Y-104673809D01*
X162092857Y-104721428D01*
X162092857Y-104745238D01*
X162069047Y-104792857D01*
X162045238Y-104816666D01*
X161997619Y-104840476D01*
X161902380Y-104840476D01*
X161854761Y-104864285D01*
X161830952Y-104888095D01*
X161807142Y-104935714D01*
X161807142Y-105030952D01*
X161830952Y-105078571D01*
X161854761Y-105102380D01*
X161902380Y-105126190D01*
X161997619Y-105126190D01*
X162045238Y-105102380D01*
X162069047Y-105078571D01*
X162092857Y-105030952D01*
X162092857Y-104935714D01*
X162069047Y-104888095D01*
X162045238Y-104864285D01*
X161997619Y-104840476D01*
D11*
%TO.C,C1*%
X153808333Y-106557142D02*
X153760714Y-106604761D01*
X153617857Y-106652380D01*
X153522619Y-106652380D01*
X153379761Y-106604761D01*
X153284523Y-106509523D01*
X153236904Y-106414285D01*
X153189285Y-106223809D01*
X153189285Y-106080952D01*
X153236904Y-105890476D01*
X153284523Y-105795238D01*
X153379761Y-105700000D01*
X153522619Y-105652380D01*
X153617857Y-105652380D01*
X153760714Y-105700000D01*
X153808333Y-105747619D01*
X154760714Y-106652380D02*
X154189285Y-106652380D01*
X154475000Y-106652380D02*
X154475000Y-105652380D01*
X154379761Y-105795238D01*
X154284523Y-105890476D01*
X154189285Y-105938095D01*
D10*
%TO.C,R1*%
X147151190Y-100383333D02*
X146913095Y-100550000D01*
X147151190Y-100669047D02*
X146651190Y-100669047D01*
X146651190Y-100478571D01*
X146675000Y-100430952D01*
X146698809Y-100407142D01*
X146746428Y-100383333D01*
X146817857Y-100383333D01*
X146865476Y-100407142D01*
X146889285Y-100430952D01*
X146913095Y-100478571D01*
X146913095Y-100669047D01*
X147151190Y-99907142D02*
X147151190Y-100192857D01*
X147151190Y-100050000D02*
X146651190Y-100050000D01*
X146722619Y-100097619D01*
X146770238Y-100145238D01*
X146794047Y-100192857D01*
%TO.C,R2*%
X148851190Y-100408333D02*
X148613095Y-100575000D01*
X148851190Y-100694047D02*
X148351190Y-100694047D01*
X148351190Y-100503571D01*
X148375000Y-100455952D01*
X148398809Y-100432142D01*
X148446428Y-100408333D01*
X148517857Y-100408333D01*
X148565476Y-100432142D01*
X148589285Y-100455952D01*
X148613095Y-100503571D01*
X148613095Y-100694047D01*
X148398809Y-100217857D02*
X148375000Y-100194047D01*
X148351190Y-100146428D01*
X148351190Y-100027380D01*
X148375000Y-99979761D01*
X148398809Y-99955952D01*
X148446428Y-99932142D01*
X148494047Y-99932142D01*
X148565476Y-99955952D01*
X148851190Y-100241666D01*
X148851190Y-99932142D01*
%TO.C,R4*%
X153216666Y-100451190D02*
X153050000Y-100213095D01*
X152930952Y-100451190D02*
X152930952Y-99951190D01*
X153121428Y-99951190D01*
X153169047Y-99975000D01*
X153192857Y-99998809D01*
X153216666Y-100046428D01*
X153216666Y-100117857D01*
X153192857Y-100165476D01*
X153169047Y-100189285D01*
X153121428Y-100213095D01*
X152930952Y-100213095D01*
X153645238Y-100117857D02*
X153645238Y-100451190D01*
X153526190Y-99927380D02*
X153407142Y-100284523D01*
X153716666Y-100284523D01*
D12*
%TO.C,D2*%
X157380952Y-104576190D02*
X157380952Y-104076190D01*
X157500000Y-104076190D01*
X157571428Y-104100000D01*
X157619047Y-104147619D01*
X157642857Y-104195238D01*
X157666666Y-104290476D01*
X157666666Y-104361904D01*
X157642857Y-104457142D01*
X157619047Y-104504761D01*
X157571428Y-104552380D01*
X157500000Y-104576190D01*
X157380952Y-104576190D01*
X157857142Y-104123809D02*
X157880952Y-104100000D01*
X157928571Y-104076190D01*
X158047619Y-104076190D01*
X158095238Y-104100000D01*
X158119047Y-104123809D01*
X158142857Y-104171428D01*
X158142857Y-104219047D01*
X158119047Y-104290476D01*
X157833333Y-104576190D01*
X158142857Y-104576190D01*
%TO.C,R6*%
X156541666Y-101301190D02*
X156375000Y-101063095D01*
X156255952Y-101301190D02*
X156255952Y-100801190D01*
X156446428Y-100801190D01*
X156494047Y-100825000D01*
X156517857Y-100848809D01*
X156541666Y-100896428D01*
X156541666Y-100967857D01*
X156517857Y-101015476D01*
X156494047Y-101039285D01*
X156446428Y-101063095D01*
X156255952Y-101063095D01*
X156970238Y-100801190D02*
X156875000Y-100801190D01*
X156827380Y-100825000D01*
X156803571Y-100848809D01*
X156755952Y-100920238D01*
X156732142Y-101015476D01*
X156732142Y-101205952D01*
X156755952Y-101253571D01*
X156779761Y-101277380D01*
X156827380Y-101301190D01*
X156922619Y-101301190D01*
X156970238Y-101277380D01*
X156994047Y-101253571D01*
X157017857Y-101205952D01*
X157017857Y-101086904D01*
X156994047Y-101039285D01*
X156970238Y-101015476D01*
X156922619Y-100991666D01*
X156827380Y-100991666D01*
X156779761Y-101015476D01*
X156755952Y-101039285D01*
X156732142Y-101086904D01*
%TO.C,R5*%
X158816666Y-99651190D02*
X158650000Y-99413095D01*
X158530952Y-99651190D02*
X158530952Y-99151190D01*
X158721428Y-99151190D01*
X158769047Y-99175000D01*
X158792857Y-99198809D01*
X158816666Y-99246428D01*
X158816666Y-99317857D01*
X158792857Y-99365476D01*
X158769047Y-99389285D01*
X158721428Y-99413095D01*
X158530952Y-99413095D01*
X159269047Y-99151190D02*
X159030952Y-99151190D01*
X159007142Y-99389285D01*
X159030952Y-99365476D01*
X159078571Y-99341666D01*
X159197619Y-99341666D01*
X159245238Y-99365476D01*
X159269047Y-99389285D01*
X159292857Y-99436904D01*
X159292857Y-99555952D01*
X159269047Y-99603571D01*
X159245238Y-99627380D01*
X159197619Y-99651190D01*
X159078571Y-99651190D01*
X159030952Y-99627380D01*
X159007142Y-99603571D01*
%TO.C,R7*%
X160841666Y-106576190D02*
X160675000Y-106338095D01*
X160555952Y-106576190D02*
X160555952Y-106076190D01*
X160746428Y-106076190D01*
X160794047Y-106100000D01*
X160817857Y-106123809D01*
X160841666Y-106171428D01*
X160841666Y-106242857D01*
X160817857Y-106290476D01*
X160794047Y-106314285D01*
X160746428Y-106338095D01*
X160555952Y-106338095D01*
X161008333Y-106076190D02*
X161341666Y-106076190D01*
X161127380Y-106576190D01*
%TO.C,C2*%
X165441666Y-99278571D02*
X165417857Y-99302380D01*
X165346428Y-99326190D01*
X165298809Y-99326190D01*
X165227380Y-99302380D01*
X165179761Y-99254761D01*
X165155952Y-99207142D01*
X165132142Y-99111904D01*
X165132142Y-99040476D01*
X165155952Y-98945238D01*
X165179761Y-98897619D01*
X165227380Y-98850000D01*
X165298809Y-98826190D01*
X165346428Y-98826190D01*
X165417857Y-98850000D01*
X165441666Y-98873809D01*
X165632142Y-98873809D02*
X165655952Y-98850000D01*
X165703571Y-98826190D01*
X165822619Y-98826190D01*
X165870238Y-98850000D01*
X165894047Y-98873809D01*
X165917857Y-98921428D01*
X165917857Y-98969047D01*
X165894047Y-99040476D01*
X165608333Y-99326190D01*
X165917857Y-99326190D01*
D10*
%TO.C,R9*%
X145916666Y-102101190D02*
X145750000Y-101863095D01*
X145630952Y-102101190D02*
X145630952Y-101601190D01*
X145821428Y-101601190D01*
X145869047Y-101625000D01*
X145892857Y-101648809D01*
X145916666Y-101696428D01*
X145916666Y-101767857D01*
X145892857Y-101815476D01*
X145869047Y-101839285D01*
X145821428Y-101863095D01*
X145630952Y-101863095D01*
X146154761Y-102101190D02*
X146250000Y-102101190D01*
X146297619Y-102077380D01*
X146321428Y-102053571D01*
X146369047Y-101982142D01*
X146392857Y-101886904D01*
X146392857Y-101696428D01*
X146369047Y-101648809D01*
X146345238Y-101625000D01*
X146297619Y-101601190D01*
X146202380Y-101601190D01*
X146154761Y-101625000D01*
X146130952Y-101648809D01*
X146107142Y-101696428D01*
X146107142Y-101815476D01*
X146130952Y-101863095D01*
X146154761Y-101886904D01*
X146202380Y-101910714D01*
X146297619Y-101910714D01*
X146345238Y-101886904D01*
X146369047Y-101863095D01*
X146392857Y-101815476D01*
D13*
%TO.C,J1*%
X145035000Y-104310000D02*
X145035000Y-95590000D01*
X143735000Y-106010000D02*
X145035000Y-104310000D01*
X140915000Y-106010000D02*
X139615000Y-104310000D01*
X139615000Y-95590000D02*
X145035000Y-95590000D01*
X140915000Y-106010000D02*
X143735000Y-106010000D01*
X139615000Y-104310000D02*
X139615000Y-95590000D01*
%TO.C,R10*%
X147046359Y-103620000D02*
X147353641Y-103620000D01*
X147046359Y-104380000D02*
X147353641Y-104380000D01*
%TO.C,R11*%
X146946359Y-105655000D02*
X147253641Y-105655000D01*
X146946359Y-104895000D02*
X147253641Y-104895000D01*
%TO.C,R8*%
X162603641Y-103445000D02*
X162296359Y-103445000D01*
X162603641Y-104205000D02*
X162296359Y-104205000D01*
%TO.C,Q2*%
X166910000Y-98285000D02*
X166910000Y-98585000D01*
X166910000Y-93515000D02*
X166910000Y-93215000D01*
X160790000Y-98235000D02*
X160790000Y-98585000D01*
X166910000Y-98585000D02*
X160790000Y-98585000D01*
X166910000Y-93215000D02*
X160790000Y-93215000D01*
%TO.C,U1*%
X153820000Y-92600000D02*
X153820000Y-93070000D01*
X153820000Y-99500000D02*
X153820000Y-99030000D01*
X152320000Y-99500000D02*
X153820000Y-99500000D01*
X153820000Y-93070000D02*
X154920000Y-93070000D01*
X153820000Y-99030000D02*
X156650000Y-99030000D01*
X152320000Y-92600000D02*
X153820000Y-92600000D01*
%TO.C,C1*%
X154710000Y-104061252D02*
X154710000Y-103538748D01*
X153240000Y-104061252D02*
X153240000Y-103538748D01*
%TO.C,R1*%
X145670000Y-100753641D02*
X145670000Y-100446359D01*
X146430000Y-100753641D02*
X146430000Y-100446359D01*
%TO.C,D3*%
X166735000Y-105590000D02*
X164450000Y-105590000D01*
X166735000Y-107060000D02*
X166735000Y-105590000D01*
X164450000Y-107060000D02*
X166735000Y-107060000D01*
%TO.C,R2*%
X147370000Y-100371359D02*
X147370000Y-100678641D01*
X148130000Y-100371359D02*
X148130000Y-100678641D01*
%TO.C,R4*%
X154755000Y-100778641D02*
X154755000Y-100471359D01*
X153995000Y-100778641D02*
X153995000Y-100471359D01*
%TO.C,D2*%
X158725000Y-102100000D02*
X158725000Y-105950000D01*
X158725000Y-102100000D02*
X156725000Y-102100000D01*
X156725000Y-102100000D02*
X156725000Y-105950000D01*
%TO.C,R6*%
X157320000Y-100571359D02*
X157320000Y-100878641D01*
X158080000Y-100571359D02*
X158080000Y-100878641D01*
%TO.C,Q1*%
X150325000Y-107160000D02*
X149675000Y-107160000D01*
X150325000Y-107160000D02*
X150975000Y-107160000D01*
X150325000Y-104040000D02*
X150975000Y-104040000D01*
X150325000Y-104040000D02*
X148650000Y-104040000D01*
%TO.C,U2*%
X163000000Y-102760000D02*
X164800000Y-102760000D01*
X163000000Y-99640000D02*
X163800000Y-99640000D01*
X163000000Y-102760000D02*
X162200000Y-102760000D01*
X163000000Y-99640000D02*
X162200000Y-99640000D01*
%TO.C,U3*%
X151960000Y-101700000D02*
X151960000Y-100900000D01*
X148840000Y-101700000D02*
X148840000Y-100900000D01*
X148840000Y-101700000D02*
X148840000Y-103500000D01*
X151960000Y-101700000D02*
X151960000Y-102500000D01*
%TO.C,R5*%
X158470000Y-100903641D02*
X158470000Y-100596359D01*
X159230000Y-100903641D02*
X159230000Y-100596359D01*
%TO.C,R7*%
X162271359Y-106655000D02*
X162578641Y-106655000D01*
X162271359Y-105895000D02*
X162578641Y-105895000D01*
%TO.C,C2*%
X166035000Y-100532836D02*
X166035000Y-100317164D01*
X165315000Y-100532836D02*
X165315000Y-100317164D01*
%TO.C,J2*%
X139575000Y-91700000D02*
X152425000Y-91700000D01*
X155275000Y-89150000D02*
X155275000Y-86000000D01*
X155275000Y-86000000D02*
X152425000Y-83400000D01*
X152425000Y-91700000D02*
X155275000Y-89150000D01*
X139575000Y-83400000D02*
X139575000Y-91700000D01*
X152425000Y-83400000D02*
X139575000Y-83400000D01*
%TO.C,J3*%
X172475000Y-83250000D02*
X159625000Y-83250000D01*
X156775000Y-88950000D02*
X159625000Y-91550000D01*
X156775000Y-85800000D02*
X156775000Y-88950000D01*
X172475000Y-91550000D02*
X172475000Y-83250000D01*
X159625000Y-83250000D02*
X156775000Y-85800000D01*
X159625000Y-91550000D02*
X172475000Y-91550000D01*
%TO.C,R9*%
X147353641Y-103030000D02*
X147046359Y-103030000D01*
X147353641Y-102270000D02*
X147046359Y-102270000D01*
%TD*%
M02*
