%TF.GenerationSoftware,KiCad,Pcbnew,(6.0.6)*%
%TF.CreationDate,2022-10-10T16:19:53+08:00*%
%TF.ProjectId,NMOS_SWITCH,4e4d4f53-5f53-4574-9954-43482e6b6963,rev?*%
%TF.SameCoordinates,Original*%
%TF.FileFunction,Copper,L1,Top*%
%TF.FilePolarity,Positive*%
%FSLAX46Y46*%
G04 Gerber Fmt 4.6, Leading zero omitted, Abs format (unit mm)*
G04 Created by KiCad (PCBNEW (6.0.6)) date 2022-10-10 16:19:53*
%MOMM*%
%LPD*%
G01*
G04 APERTURE LIST*
G04 Aperture macros list*
%AMRoundRect*
0 Rectangle with rounded corners*
0 $1 Rounding radius*
0 $2 $3 $4 $5 $6 $7 $8 $9 X,Y pos of 4 corners*
0 Add a 4 corners polygon primitive as box body*
4,1,4,$2,$3,$4,$5,$6,$7,$8,$9,$2,$3,0*
0 Add four circle primitives for the rounded corners*
1,1,$1+$1,$2,$3*
1,1,$1+$1,$4,$5*
1,1,$1+$1,$6,$7*
1,1,$1+$1,$8,$9*
0 Add four rect primitives between the rounded corners*
20,1,$1+$1,$2,$3,$4,$5,0*
20,1,$1+$1,$4,$5,$6,$7,0*
20,1,$1+$1,$6,$7,$8,$9,0*
20,1,$1+$1,$8,$9,$2,$3,0*%
G04 Aperture macros list end*
%TA.AperFunction,ComponentPad*%
%ADD10R,3.000000X3.000000*%
%TD*%
%TA.AperFunction,ComponentPad*%
%ADD11C,3.000000*%
%TD*%
%TA.AperFunction,SMDPad,CuDef*%
%ADD12RoundRect,0.135000X-0.135000X-0.185000X0.135000X-0.185000X0.135000X0.185000X-0.135000X0.185000X0*%
%TD*%
%TA.AperFunction,SMDPad,CuDef*%
%ADD13RoundRect,0.135000X0.135000X0.185000X-0.135000X0.185000X-0.135000X-0.185000X0.135000X-0.185000X0*%
%TD*%
%TA.AperFunction,SMDPad,CuDef*%
%ADD14R,0.850000X0.500000*%
%TD*%
%TA.AperFunction,SMDPad,CuDef*%
%ADD15R,4.550000X4.410000*%
%TD*%
%TA.AperFunction,SMDPad,CuDef*%
%ADD16R,2.200000X0.800000*%
%TD*%
%TA.AperFunction,SMDPad,CuDef*%
%ADD17R,6.400000X5.800000*%
%TD*%
%TA.AperFunction,SMDPad,CuDef*%
%ADD18RoundRect,0.250000X0.475000X-0.250000X0.475000X0.250000X-0.475000X0.250000X-0.475000X-0.250000X0*%
%TD*%
%TA.AperFunction,SMDPad,CuDef*%
%ADD19RoundRect,0.135000X0.185000X-0.135000X0.185000X0.135000X-0.185000X0.135000X-0.185000X-0.135000X0*%
%TD*%
%TA.AperFunction,SMDPad,CuDef*%
%ADD20RoundRect,0.218750X0.218750X0.256250X-0.218750X0.256250X-0.218750X-0.256250X0.218750X-0.256250X0*%
%TD*%
%TA.AperFunction,SMDPad,CuDef*%
%ADD21RoundRect,0.135000X-0.185000X0.135000X-0.185000X-0.135000X0.185000X-0.135000X0.185000X0.135000X0*%
%TD*%
%TA.AperFunction,SMDPad,CuDef*%
%ADD22R,1.100000X1.100000*%
%TD*%
%TA.AperFunction,SMDPad,CuDef*%
%ADD23RoundRect,0.150000X-0.587500X-0.150000X0.587500X-0.150000X0.587500X0.150000X-0.587500X0.150000X0*%
%TD*%
%TA.AperFunction,SMDPad,CuDef*%
%ADD24RoundRect,0.150000X0.512500X0.150000X-0.512500X0.150000X-0.512500X-0.150000X0.512500X-0.150000X0*%
%TD*%
%TA.AperFunction,SMDPad,CuDef*%
%ADD25RoundRect,0.150000X0.150000X-0.512500X0.150000X0.512500X-0.150000X0.512500X-0.150000X-0.512500X0*%
%TD*%
%TA.AperFunction,SMDPad,CuDef*%
%ADD26RoundRect,0.140000X0.170000X-0.140000X0.170000X0.140000X-0.170000X0.140000X-0.170000X-0.140000X0*%
%TD*%
%TA.AperFunction,ComponentPad*%
%ADD27RoundRect,1.500000X1.500000X1.500000X-1.500000X1.500000X-1.500000X-1.500000X1.500000X-1.500000X0*%
%TD*%
%TA.AperFunction,ComponentPad*%
%ADD28C,6.000000*%
%TD*%
%TA.AperFunction,ComponentPad*%
%ADD29RoundRect,1.500000X-1.500000X-1.500000X1.500000X-1.500000X1.500000X1.500000X-1.500000X1.500000X0*%
%TD*%
%TA.AperFunction,ViaPad*%
%ADD30C,0.800000*%
%TD*%
%TA.AperFunction,Conductor*%
%ADD31C,0.250000*%
%TD*%
G04 APERTURE END LIST*
D10*
%TO.P,J1,1,Pin_1*%
%TO.N,GND*%
X142325000Y-103300000D03*
D11*
%TO.P,J1,2,Pin_2*%
%TO.N,/EN*%
X142325000Y-98300000D03*
%TD*%
D12*
%TO.P,R10,1*%
%TO.N,/EN*%
X146690000Y-104000000D03*
%TO.P,R10,2*%
%TO.N,Net-(R10-Pad2)*%
X147710000Y-104000000D03*
%TD*%
%TO.P,R11,1*%
%TO.N,GND*%
X146590000Y-105275000D03*
%TO.P,R11,2*%
%TO.N,Net-(R10-Pad2)*%
X147610000Y-105275000D03*
%TD*%
D13*
%TO.P,R8,1*%
%TO.N,Net-(U2-Pad1)*%
X162960000Y-103825000D03*
%TO.P,R8,2*%
%TO.N,/NMOS_OUT*%
X161940000Y-103825000D03*
%TD*%
D14*
%TO.P,Q2,1,S*%
%TO.N,Net-(Q2-Pad1)*%
X160950000Y-93995000D03*
%TO.P,Q2,2,S*%
X160950000Y-95265000D03*
%TO.P,Q2,3,S*%
X160950000Y-96535000D03*
%TO.P,Q2,4,G*%
%TO.N,Net-(U2-Pad5)*%
X160950000Y-97805000D03*
D15*
%TO.P,Q2,5,D*%
%TO.N,/NMOS_OUT*%
X164900000Y-95900000D03*
%TD*%
D16*
%TO.P,U1,1,OUT*%
%TO.N,Net-(Q2-Pad1)*%
X155550000Y-98330000D03*
%TO.P,U1,2,IN*%
%TO.N,Net-(R4-Pad2)*%
X155550000Y-97190000D03*
D17*
%TO.P,U1,3,Vbb*%
%TO.N,/NMOS_IN*%
X149250000Y-96050000D03*
D16*
%TO.P,U1,4,IS*%
%TO.N,Net-(R5-Pad2)*%
X155550000Y-94910000D03*
%TO.P,U1,5,OUT*%
%TO.N,Net-(Q2-Pad1)*%
X155550000Y-93770000D03*
%TD*%
D18*
%TO.P,C1,1*%
%TO.N,Net-(U3-Pad1)*%
X153975000Y-104750000D03*
%TO.P,C1,2*%
%TO.N,GND*%
X153975000Y-102850000D03*
%TD*%
D19*
%TO.P,R1,1*%
%TO.N,Net-(U3-Pad1)*%
X146050000Y-101110000D03*
%TO.P,R1,2*%
%TO.N,/NMOS_IN*%
X146050000Y-100090000D03*
%TD*%
D20*
%TO.P,D3,1,K*%
%TO.N,GND*%
X166037500Y-106325000D03*
%TO.P,D3,2,A*%
%TO.N,Net-(D3-Pad2)*%
X164462500Y-106325000D03*
%TD*%
D21*
%TO.P,R2,1*%
%TO.N,/NMOS_IN*%
X147750000Y-100015000D03*
%TO.P,R2,2*%
%TO.N,Net-(U3-Pad3)*%
X147750000Y-101035000D03*
%TD*%
D19*
%TO.P,R4,1*%
%TO.N,Net-(R4-Pad1)*%
X154375000Y-101135000D03*
%TO.P,R4,2*%
%TO.N,Net-(R4-Pad2)*%
X154375000Y-100115000D03*
%TD*%
D22*
%TO.P,D2,1,K*%
%TO.N,Net-(D2-Pad1)*%
X157725000Y-102900000D03*
%TO.P,D2,2,A*%
%TO.N,GND*%
X157725000Y-105700000D03*
%TD*%
D21*
%TO.P,R6,1*%
%TO.N,Net-(R5-Pad2)*%
X157700000Y-100215000D03*
%TO.P,R6,2*%
%TO.N,Net-(D2-Pad1)*%
X157700000Y-101235000D03*
%TD*%
D23*
%TO.P,Q1,1,B*%
%TO.N,Net-(R10-Pad2)*%
X149387500Y-104650000D03*
%TO.P,Q1,2,E*%
%TO.N,Net-(U3-Pad1)*%
X149387500Y-106550000D03*
%TO.P,Q1,3,C*%
%TO.N,GND*%
X151262500Y-105600000D03*
%TD*%
D24*
%TO.P,U2,1,VS*%
%TO.N,Net-(U2-Pad1)*%
X164137500Y-102150000D03*
%TO.P,U2,2,GND*%
%TO.N,GND*%
X164137500Y-101200000D03*
%TO.P,U2,3,OFF*%
X164137500Y-100250000D03*
%TO.P,U2,4,IN*%
%TO.N,Net-(Q2-Pad1)*%
X161862500Y-100250000D03*
%TO.P,U2,5,GATE*%
%TO.N,Net-(U2-Pad5)*%
X161862500Y-101200000D03*
%TO.P,U2,6,OUT*%
%TO.N,/NMOS_OUT*%
X161862500Y-102150000D03*
%TD*%
D25*
%TO.P,U3,1,-*%
%TO.N,Net-(U3-Pad1)*%
X149450000Y-102837500D03*
%TO.P,U3,2,V-*%
%TO.N,GND*%
X150400000Y-102837500D03*
%TO.P,U3,3,+*%
%TO.N,Net-(U3-Pad3)*%
X151350000Y-102837500D03*
%TO.P,U3,4*%
%TO.N,Net-(R4-Pad1)*%
X151350000Y-100562500D03*
%TO.P,U3,5,V+*%
%TO.N,/NMOS_IN*%
X149450000Y-100562500D03*
%TD*%
D19*
%TO.P,R5,1*%
%TO.N,GND*%
X158850000Y-101260000D03*
%TO.P,R5,2*%
%TO.N,Net-(R5-Pad2)*%
X158850000Y-100240000D03*
%TD*%
D12*
%TO.P,R7,1*%
%TO.N,Net-(Q2-Pad1)*%
X161915000Y-106275000D03*
%TO.P,R7,2*%
%TO.N,Net-(D3-Pad2)*%
X162935000Y-106275000D03*
%TD*%
D26*
%TO.P,C2,1*%
%TO.N,Net-(U2-Pad1)*%
X165675000Y-100905000D03*
%TO.P,C2,2*%
%TO.N,GND*%
X165675000Y-99945000D03*
%TD*%
D27*
%TO.P,J2,1,Pin_1*%
%TO.N,GND*%
X151025000Y-87550000D03*
D28*
%TO.P,J2,2,Pin_2*%
%TO.N,/NMOS_IN*%
X143825000Y-87550000D03*
%TD*%
D29*
%TO.P,J3,1,Pin_1*%
%TO.N,GND*%
X161025000Y-87400000D03*
D28*
%TO.P,J3,2,Pin_2*%
%TO.N,/NMOS_OUT*%
X168225000Y-87400000D03*
%TD*%
D13*
%TO.P,R9,1*%
%TO.N,Net-(U3-Pad3)*%
X147710000Y-102650000D03*
%TO.P,R9,2*%
%TO.N,GND*%
X146690000Y-102650000D03*
%TD*%
D30*
%TO.N,GND*%
X164000000Y-99275000D03*
X150400000Y-103625000D03*
X146300000Y-102450000D03*
X165625000Y-104925000D03*
%TO.N,Net-(U3-Pad1)*%
X149275000Y-102650000D03*
X146375000Y-101025000D03*
X154000000Y-104775000D03*
%TO.N,/NMOS_IN*%
X140450000Y-91275000D03*
%TO.N,Net-(R5-Pad2)*%
X156400000Y-100050000D03*
X153775000Y-94925000D03*
%TO.N,Net-(Q2-Pad1)*%
X159475000Y-98550000D03*
%TD*%
D31*
%TO.N,Net-(U3-Pad1)*%
X152175000Y-106550000D02*
X153975000Y-104750000D01*
X146050000Y-101110000D02*
X146290000Y-101110000D01*
X149262500Y-102650000D02*
X149450000Y-102837500D01*
X146290000Y-101110000D02*
X146375000Y-101025000D01*
X149387500Y-106550000D02*
X152175000Y-106550000D01*
%TO.N,Net-(D3-Pad2)*%
X164412500Y-106275000D02*
X164462500Y-106325000D01*
X162935000Y-106275000D02*
X164412500Y-106275000D01*
%TO.N,/NMOS_OUT*%
X166375000Y-97375000D02*
X164900000Y-95900000D01*
X162585000Y-104470000D02*
X163655000Y-104470000D01*
X163655000Y-104470000D02*
X165325000Y-102800000D01*
X161862500Y-103672500D02*
X161940000Y-103750000D01*
X166375000Y-101850000D02*
X166375000Y-97375000D01*
X165425000Y-102800000D02*
X166375000Y-101850000D01*
X161862500Y-102150000D02*
X161862500Y-103672500D01*
X165325000Y-102800000D02*
X165425000Y-102800000D01*
X161940000Y-103825000D02*
X162585000Y-104470000D01*
%TO.N,/EN*%
X145050000Y-101025000D02*
X142325000Y-98300000D01*
X145050000Y-102360000D02*
X145050000Y-101025000D01*
X146690000Y-104000000D02*
X145050000Y-102360000D01*
%TO.N,Net-(U2-Pad1)*%
X165100000Y-102150000D02*
X165675000Y-101575000D01*
X164137500Y-102150000D02*
X165100000Y-102150000D01*
X165675000Y-101575000D02*
X165675000Y-100905000D01*
X163475000Y-103750000D02*
X164137500Y-103087500D01*
X164137500Y-103087500D02*
X164137500Y-102150000D01*
X162960000Y-103750000D02*
X163475000Y-103750000D01*
%TO.N,Net-(R4-Pad2)*%
X154235000Y-97190000D02*
X155550000Y-97190000D01*
X153675000Y-99175000D02*
X153675000Y-97750000D01*
X153675000Y-97750000D02*
X154235000Y-97190000D01*
X154375000Y-99875000D02*
X153675000Y-99175000D01*
X154375000Y-100115000D02*
X154375000Y-99875000D01*
%TO.N,Net-(R5-Pad2)*%
X158825000Y-100215000D02*
X158850000Y-100240000D01*
X153775000Y-94925000D02*
X155535000Y-94925000D01*
X155535000Y-94925000D02*
X155550000Y-94910000D01*
X157700000Y-100215000D02*
X158825000Y-100215000D01*
X157700000Y-100215000D02*
X156565000Y-100215000D01*
X156565000Y-100215000D02*
X156400000Y-100050000D01*
%TO.N,Net-(D2-Pad1)*%
X157700000Y-102875000D02*
X157725000Y-102900000D01*
X157700000Y-101235000D02*
X157700000Y-102875000D01*
%TO.N,Net-(Q2-Pad1)*%
X160500000Y-98887500D02*
X160500000Y-99350000D01*
X160162500Y-98550000D02*
X160500000Y-98887500D01*
X160950000Y-99800000D02*
X161725000Y-99800000D01*
X160325000Y-101125000D02*
X161200000Y-100250000D01*
X160500000Y-99350000D02*
X160950000Y-99800000D01*
X161915000Y-106275000D02*
X160325000Y-104685000D01*
X159475000Y-98550000D02*
X160162500Y-98550000D01*
X161862500Y-99937500D02*
X161862500Y-100250000D01*
X161725000Y-99800000D02*
X161862500Y-99937500D01*
X160325000Y-101125000D02*
X160325000Y-104685000D01*
X161200000Y-100250000D02*
X161862500Y-100250000D01*
%TO.N,Net-(R10-Pad2)*%
X148275000Y-104000000D02*
X147710000Y-104000000D01*
X147710000Y-104000000D02*
X147710000Y-104515000D01*
X148925000Y-104650000D02*
X148275000Y-104000000D01*
X149587500Y-104650000D02*
X148925000Y-104650000D01*
X147610000Y-104615000D02*
X147610000Y-105275000D01*
X147710000Y-104515000D02*
X147610000Y-104615000D01*
%TO.N,Net-(U2-Pad5)*%
X162925000Y-99900000D02*
X162925000Y-100875000D01*
X160950000Y-97805000D02*
X160950000Y-98975000D01*
X162375000Y-99350000D02*
X162925000Y-99900000D01*
X160950000Y-98975000D02*
X161325000Y-99350000D01*
X162600000Y-101200000D02*
X161862500Y-101200000D01*
X161325000Y-99350000D02*
X162375000Y-99350000D01*
X162925000Y-100875000D02*
X162600000Y-101200000D01*
%TO.N,Net-(R4-Pad1)*%
X153600000Y-99850000D02*
X153600000Y-100925000D01*
X151850000Y-99450000D02*
X153200000Y-99450000D01*
X153810000Y-101135000D02*
X154375000Y-101135000D01*
X151350000Y-100562500D02*
X151350000Y-99950000D01*
X153600000Y-100925000D02*
X153810000Y-101135000D01*
X153200000Y-99450000D02*
X153600000Y-99850000D01*
X151350000Y-99950000D02*
X151850000Y-99450000D01*
%TO.N,Net-(U3-Pad3)*%
X150975000Y-101800000D02*
X148560000Y-101800000D01*
X147750000Y-102610000D02*
X147710000Y-102650000D01*
X151350000Y-102837500D02*
X151350000Y-102175000D01*
X148560000Y-101800000D02*
X147710000Y-102650000D01*
X147750000Y-101035000D02*
X147750000Y-102610000D01*
X151350000Y-102175000D02*
X150975000Y-101800000D01*
%TD*%
%TA.AperFunction,Conductor*%
%TO.N,Net-(Q2-Pad1)*%
G36*
X161874268Y-92364919D02*
G01*
X161920794Y-92418546D01*
X161932195Y-92473001D01*
X161861276Y-96846343D01*
X161840172Y-96914130D01*
X161785770Y-96959747D01*
X161735720Y-96970299D01*
X161422509Y-96971362D01*
X160350000Y-96975000D01*
X160350000Y-97320597D01*
X160328765Y-97390599D01*
X160285266Y-97455699D01*
X160270500Y-97529933D01*
X160270501Y-98080066D01*
X160285266Y-98154301D01*
X160292161Y-98164621D01*
X160292162Y-98164622D01*
X160328765Y-98219401D01*
X160350000Y-98289403D01*
X160350000Y-99125377D01*
X160329998Y-99193498D01*
X160276342Y-99239991D01*
X160225385Y-99251369D01*
X158493879Y-99270397D01*
X154405598Y-99315323D01*
X154337264Y-99296072D01*
X154315121Y-99278427D01*
X154091405Y-99054711D01*
X154057379Y-98992399D01*
X154054500Y-98965616D01*
X154054500Y-97959384D01*
X154074502Y-97891263D01*
X154091405Y-97870289D01*
X154146456Y-97815238D01*
X154208768Y-97781212D01*
X154279583Y-97786277D01*
X154305550Y-97799566D01*
X154350699Y-97829734D01*
X154424933Y-97844500D01*
X155549818Y-97844500D01*
X156675066Y-97844499D01*
X156710818Y-97837388D01*
X156737126Y-97832156D01*
X156737128Y-97832155D01*
X156749301Y-97829734D01*
X156759621Y-97822839D01*
X156759622Y-97822838D01*
X156823168Y-97780377D01*
X156833484Y-97773484D01*
X156889734Y-97689301D01*
X156904500Y-97615067D01*
X156904499Y-96764934D01*
X156889734Y-96690699D01*
X156833484Y-96606516D01*
X156749301Y-96550266D01*
X156675067Y-96535500D01*
X155550182Y-96535500D01*
X154424934Y-96535501D01*
X154389182Y-96542612D01*
X154362874Y-96547844D01*
X154362872Y-96547845D01*
X154350699Y-96550266D01*
X154340379Y-96557161D01*
X154340378Y-96557162D01*
X154279985Y-96597516D01*
X154266516Y-96606516D01*
X154210266Y-96690699D01*
X154207845Y-96702871D01*
X154202479Y-96729848D01*
X154169572Y-96792758D01*
X154126749Y-96818604D01*
X154127671Y-96820524D01*
X154124536Y-96822030D01*
X154117921Y-96824740D01*
X154110374Y-96825996D01*
X154101205Y-96830943D01*
X154101203Y-96830944D01*
X154065268Y-96850334D01*
X154059976Y-96853031D01*
X154013768Y-96875219D01*
X154009493Y-96878813D01*
X154007568Y-96880738D01*
X154005638Y-96882509D01*
X154005553Y-96882555D01*
X154005441Y-96882432D01*
X154004906Y-96882904D01*
X153999186Y-96885990D01*
X153992119Y-96893635D01*
X153962584Y-96925586D01*
X153959154Y-96929152D01*
X153740095Y-97148211D01*
X153677783Y-97182237D01*
X153606968Y-97177172D01*
X153550132Y-97134625D01*
X153525321Y-97068105D01*
X153525000Y-97059116D01*
X153525000Y-95699415D01*
X153545002Y-95631294D01*
X153598658Y-95584801D01*
X153668932Y-95574697D01*
X153673771Y-95575676D01*
X153678171Y-95576279D01*
X153685522Y-95578207D01*
X153769477Y-95579526D01*
X153836319Y-95580576D01*
X153836322Y-95580576D01*
X153843916Y-95580695D01*
X153998332Y-95545329D01*
X154132213Y-95477995D01*
X154202055Y-95465257D01*
X154264976Y-95491179D01*
X154266516Y-95493484D01*
X154276337Y-95500046D01*
X154276339Y-95500048D01*
X154333150Y-95538008D01*
X154350699Y-95549734D01*
X154424933Y-95564500D01*
X155549818Y-95564500D01*
X156675066Y-95564499D01*
X156710818Y-95557388D01*
X156737126Y-95552156D01*
X156737128Y-95552155D01*
X156749301Y-95549734D01*
X156759621Y-95542839D01*
X156759622Y-95542838D01*
X156823168Y-95500377D01*
X156833484Y-95493484D01*
X156889734Y-95409301D01*
X156904500Y-95335067D01*
X156904499Y-94484934D01*
X156897388Y-94449182D01*
X156892156Y-94422874D01*
X156892155Y-94422872D01*
X156889734Y-94410699D01*
X156833484Y-94326516D01*
X156749301Y-94270266D01*
X156675067Y-94255500D01*
X155550182Y-94255500D01*
X154424934Y-94255501D01*
X154389182Y-94262612D01*
X154362874Y-94267844D01*
X154362872Y-94267845D01*
X154350699Y-94270266D01*
X154340379Y-94277161D01*
X154340378Y-94277162D01*
X154292006Y-94309484D01*
X154266516Y-94326516D01*
X154259623Y-94336832D01*
X154257337Y-94339118D01*
X154195025Y-94373144D01*
X154124210Y-94368079D01*
X154109292Y-94361382D01*
X154011274Y-94309484D01*
X153857633Y-94270892D01*
X153850034Y-94270852D01*
X153850033Y-94270852D01*
X153784181Y-94270507D01*
X153699221Y-94270062D01*
X153688054Y-94272743D01*
X153680413Y-94274577D01*
X153609505Y-94271029D01*
X153551772Y-94229709D01*
X153525542Y-94163735D01*
X153525000Y-94152058D01*
X153525000Y-92475923D01*
X153545002Y-92407802D01*
X153598658Y-92361309D01*
X153650921Y-92349923D01*
X161806135Y-92344958D01*
X161874268Y-92364919D01*
G37*
%TD.AperFunction*%
%TD*%
%TA.AperFunction,Conductor*%
%TO.N,GND*%
G36*
X173287939Y-95969368D02*
G01*
X173324905Y-96029982D01*
X173329206Y-96062772D01*
X173326990Y-97917702D01*
X173320554Y-103303743D01*
X173320055Y-103314792D01*
X173320034Y-103315026D01*
X173316542Y-103326930D01*
X173317871Y-103339266D01*
X173316853Y-103350672D01*
X173316683Y-103362750D01*
X173270247Y-103703291D01*
X173269008Y-103712375D01*
X173266888Y-103723890D01*
X173242080Y-103830548D01*
X173180189Y-104096636D01*
X173177008Y-104107910D01*
X173056064Y-104471002D01*
X173051849Y-104481932D01*
X172897711Y-104832213D01*
X172892499Y-104842704D01*
X172706494Y-105177159D01*
X172700342Y-105187105D01*
X172484065Y-105502861D01*
X172477009Y-105512199D01*
X172232358Y-105806485D01*
X172224459Y-105815135D01*
X172143907Y-105895500D01*
X171963302Y-106075685D01*
X171953532Y-106085432D01*
X171944879Y-106093297D01*
X171650017Y-106337267D01*
X171640654Y-106344306D01*
X171324411Y-106559836D01*
X171314436Y-106565976D01*
X171005720Y-106736726D01*
X170979545Y-106751203D01*
X170969046Y-106756388D01*
X170664244Y-106889666D01*
X170618400Y-106909712D01*
X170607461Y-106913900D01*
X170244093Y-107033996D01*
X170232821Y-107037149D01*
X170157427Y-107054500D01*
X169859870Y-107122979D01*
X169848344Y-107125073D01*
X169658687Y-107150485D01*
X169469023Y-107175898D01*
X169457365Y-107176910D01*
X169307786Y-107182925D01*
X169074973Y-107192286D01*
X169063260Y-107192212D01*
X168838199Y-107180315D01*
X168710679Y-107173574D01*
X168699360Y-107171581D01*
X168687602Y-107170409D01*
X168675730Y-107166793D01*
X168663379Y-107167995D01*
X168663377Y-107167995D01*
X168643830Y-107169898D01*
X168631562Y-107170491D01*
X166887687Y-107169645D01*
X165064674Y-107168760D01*
X164996563Y-107148725D01*
X164950096Y-107095047D01*
X164940026Y-107024768D01*
X164969551Y-106960201D01*
X164989170Y-106941934D01*
X165012148Y-106924713D01*
X165012150Y-106924711D01*
X165019330Y-106919330D01*
X165100628Y-106810853D01*
X165110868Y-106783540D01*
X165143696Y-106695970D01*
X165148214Y-106683919D01*
X165154500Y-106626053D01*
X165154499Y-106023948D01*
X165148214Y-105966081D01*
X165110850Y-105866414D01*
X165103779Y-105847551D01*
X165103778Y-105847548D01*
X165100628Y-105839147D01*
X165019330Y-105730670D01*
X164910853Y-105649372D01*
X164902452Y-105646222D01*
X164902449Y-105646221D01*
X164826525Y-105617758D01*
X164783919Y-105601786D01*
X164776066Y-105600933D01*
X164776062Y-105600932D01*
X164729452Y-105595869D01*
X164729448Y-105595869D01*
X164726053Y-105595500D01*
X164462539Y-105595500D01*
X164198948Y-105595501D01*
X164141081Y-105601786D01*
X164086245Y-105622343D01*
X164022551Y-105646221D01*
X164022548Y-105646222D01*
X164014147Y-105649372D01*
X163905670Y-105730670D01*
X163824372Y-105839147D01*
X163822826Y-105837989D01*
X163780575Y-105880151D01*
X163720306Y-105895500D01*
X163478419Y-105895500D01*
X163410298Y-105875498D01*
X163390473Y-105856771D01*
X163389040Y-105858204D01*
X163301796Y-105770960D01*
X163191862Y-105714946D01*
X163182073Y-105713396D01*
X163182071Y-105713395D01*
X163155579Y-105709199D01*
X163100653Y-105700500D01*
X162935034Y-105700500D01*
X162769348Y-105700501D01*
X162764455Y-105701276D01*
X162764454Y-105701276D01*
X162687936Y-105713394D01*
X162687934Y-105713395D01*
X162678138Y-105714946D01*
X162669301Y-105719449D01*
X162669300Y-105719449D01*
X162647278Y-105730670D01*
X162568204Y-105770960D01*
X162514095Y-105825069D01*
X162451783Y-105859095D01*
X162380968Y-105854030D01*
X162335905Y-105825069D01*
X162281796Y-105770960D01*
X162171862Y-105714946D01*
X162162073Y-105713396D01*
X162162071Y-105713395D01*
X162128741Y-105708116D01*
X162080653Y-105700500D01*
X162063018Y-105700500D01*
X161929385Y-105700501D01*
X161861265Y-105680499D01*
X161840290Y-105663596D01*
X160741405Y-104564711D01*
X160707379Y-104502399D01*
X160704500Y-104475616D01*
X160704500Y-102411204D01*
X160724502Y-102343083D01*
X160778158Y-102296590D01*
X160848432Y-102286486D01*
X160913012Y-102315980D01*
X160951396Y-102375706D01*
X160954949Y-102391494D01*
X160960502Y-102426555D01*
X161018674Y-102540723D01*
X161109277Y-102631326D01*
X161223445Y-102689498D01*
X161318166Y-102704500D01*
X161357000Y-102704500D01*
X161425121Y-102724502D01*
X161471614Y-102778158D01*
X161483000Y-102830500D01*
X161483000Y-103383763D01*
X161469267Y-103440965D01*
X161429946Y-103518138D01*
X161428396Y-103527927D01*
X161428395Y-103527929D01*
X161426938Y-103537128D01*
X161415500Y-103609347D01*
X161415501Y-104040652D01*
X161416276Y-104045545D01*
X161416276Y-104045546D01*
X161426318Y-104108951D01*
X161429946Y-104131862D01*
X161485960Y-104241796D01*
X161573204Y-104329040D01*
X161683138Y-104385054D01*
X161692927Y-104386604D01*
X161692929Y-104386605D01*
X161717851Y-104390552D01*
X161774347Y-104399500D01*
X161791982Y-104399500D01*
X161925615Y-104399499D01*
X161993735Y-104419501D01*
X162014710Y-104436404D01*
X162278522Y-104700216D01*
X162293664Y-104718964D01*
X162294779Y-104720189D01*
X162300429Y-104728940D01*
X162308607Y-104735387D01*
X162308609Y-104735389D01*
X162326800Y-104749729D01*
X162331241Y-104753675D01*
X162331303Y-104753602D01*
X162335267Y-104756961D01*
X162338944Y-104760638D01*
X162354692Y-104771892D01*
X162359362Y-104775398D01*
X162399647Y-104807156D01*
X162408281Y-104810188D01*
X162415734Y-104815514D01*
X162464850Y-104830203D01*
X162470492Y-104832036D01*
X162511199Y-104846331D01*
X162518851Y-104849018D01*
X162524416Y-104849500D01*
X162527124Y-104849500D01*
X162529758Y-104849614D01*
X162529856Y-104849643D01*
X162529849Y-104849807D01*
X162530553Y-104849851D01*
X162536778Y-104851713D01*
X162590635Y-104849597D01*
X162595582Y-104849500D01*
X163601080Y-104849500D01*
X163625028Y-104852049D01*
X163626693Y-104852128D01*
X163636876Y-104854320D01*
X163647217Y-104853096D01*
X163670223Y-104850373D01*
X163676154Y-104850023D01*
X163676146Y-104849928D01*
X163681324Y-104849500D01*
X163686524Y-104849500D01*
X163691653Y-104848646D01*
X163691656Y-104848646D01*
X163705565Y-104846331D01*
X163711443Y-104845494D01*
X163752001Y-104840694D01*
X163752002Y-104840694D01*
X163762341Y-104839470D01*
X163770593Y-104835507D01*
X163779626Y-104834004D01*
X163788795Y-104829057D01*
X163788797Y-104829056D01*
X163824732Y-104809666D01*
X163830025Y-104806969D01*
X163869082Y-104788215D01*
X163869086Y-104788212D01*
X163876232Y-104784781D01*
X163880508Y-104781186D01*
X163882431Y-104779263D01*
X163884363Y-104777491D01*
X163884442Y-104777448D01*
X163884555Y-104777572D01*
X163885095Y-104777096D01*
X163890814Y-104774010D01*
X163927417Y-104734413D01*
X163930846Y-104730848D01*
X165094508Y-103567186D01*
X167841018Y-103567186D01*
X167866579Y-103835100D01*
X167867664Y-103839534D01*
X167867665Y-103839540D01*
X167909665Y-104011180D01*
X167930547Y-104096518D01*
X168031583Y-104345963D01*
X168167569Y-104578210D01*
X168251679Y-104683384D01*
X168331875Y-104783664D01*
X168335658Y-104788395D01*
X168532327Y-104972113D01*
X168753457Y-105125516D01*
X168994416Y-105245391D01*
X168998750Y-105246812D01*
X168998753Y-105246813D01*
X169245823Y-105327807D01*
X169245829Y-105327808D01*
X169250156Y-105329227D01*
X169254647Y-105330007D01*
X169254648Y-105330007D01*
X169511538Y-105374611D01*
X169511546Y-105374612D01*
X169515319Y-105375267D01*
X169519156Y-105375458D01*
X169598777Y-105379422D01*
X169598785Y-105379422D01*
X169600348Y-105379500D01*
X169768374Y-105379500D01*
X169770642Y-105379335D01*
X169770654Y-105379335D01*
X169901457Y-105369844D01*
X169968425Y-105364985D01*
X169972880Y-105364001D01*
X169972883Y-105364001D01*
X170226770Y-105307947D01*
X170226772Y-105307946D01*
X170231226Y-105306963D01*
X170482900Y-105211613D01*
X170619343Y-105135826D01*
X170714179Y-105083149D01*
X170714180Y-105083148D01*
X170718172Y-105080931D01*
X170864842Y-104968996D01*
X170928491Y-104920421D01*
X170928495Y-104920417D01*
X170932116Y-104917654D01*
X170938416Y-104911210D01*
X171046439Y-104800707D01*
X171120249Y-104725203D01*
X171188759Y-104631080D01*
X171275942Y-104511304D01*
X171275947Y-104511297D01*
X171278630Y-104507610D01*
X171403941Y-104269433D01*
X171493557Y-104015662D01*
X171519431Y-103884389D01*
X171544720Y-103756083D01*
X171544721Y-103756077D01*
X171545601Y-103751611D01*
X171547704Y-103709362D01*
X171558755Y-103487383D01*
X171558755Y-103487377D01*
X171558982Y-103482814D01*
X171533421Y-103214900D01*
X171532236Y-103210054D01*
X171470539Y-102957920D01*
X171469453Y-102953482D01*
X171368417Y-102704037D01*
X171232431Y-102471790D01*
X171064342Y-102261605D01*
X170867673Y-102077887D01*
X170646543Y-101924484D01*
X170405584Y-101804609D01*
X170401250Y-101803188D01*
X170401247Y-101803187D01*
X170154177Y-101722193D01*
X170154171Y-101722192D01*
X170149844Y-101720773D01*
X170145352Y-101719993D01*
X169888462Y-101675389D01*
X169888454Y-101675388D01*
X169884681Y-101674733D01*
X169874718Y-101674237D01*
X169801223Y-101670578D01*
X169801215Y-101670578D01*
X169799652Y-101670500D01*
X169631626Y-101670500D01*
X169629358Y-101670665D01*
X169629346Y-101670665D01*
X169498543Y-101680156D01*
X169431575Y-101685015D01*
X169427120Y-101685999D01*
X169427117Y-101685999D01*
X169173230Y-101742053D01*
X169173228Y-101742054D01*
X169168774Y-101743037D01*
X168917100Y-101838387D01*
X168913114Y-101840601D01*
X168913112Y-101840602D01*
X168723389Y-101945984D01*
X168681828Y-101969069D01*
X168678196Y-101971841D01*
X168471509Y-102129579D01*
X168471505Y-102129583D01*
X168467884Y-102132346D01*
X168279751Y-102324797D01*
X168274629Y-102331834D01*
X168124058Y-102538696D01*
X168124053Y-102538703D01*
X168121370Y-102542390D01*
X167996059Y-102780567D01*
X167906443Y-103034338D01*
X167889911Y-103118215D01*
X167860991Y-103264946D01*
X167854399Y-103298389D01*
X167854172Y-103302942D01*
X167854172Y-103302945D01*
X167841395Y-103559622D01*
X167841018Y-103567186D01*
X165094508Y-103567186D01*
X165455942Y-103205752D01*
X165512382Y-103174933D01*
X165511995Y-103173601D01*
X165518033Y-103171847D01*
X165518254Y-103171726D01*
X165518712Y-103171649D01*
X165521998Y-103170694D01*
X165532341Y-103169470D01*
X165540593Y-103165507D01*
X165549626Y-103164004D01*
X165558795Y-103159057D01*
X165558797Y-103159056D01*
X165594732Y-103139666D01*
X165600025Y-103136969D01*
X165639082Y-103118215D01*
X165639086Y-103118212D01*
X165646232Y-103114781D01*
X165650508Y-103111186D01*
X165652431Y-103109263D01*
X165654363Y-103107491D01*
X165654442Y-103107448D01*
X165654555Y-103107572D01*
X165655095Y-103107096D01*
X165660814Y-103104010D01*
X165697417Y-103064413D01*
X165700846Y-103060848D01*
X166605216Y-102156478D01*
X166623964Y-102141336D01*
X166625189Y-102140221D01*
X166633940Y-102134571D01*
X166640387Y-102126393D01*
X166640389Y-102126391D01*
X166654729Y-102108200D01*
X166658675Y-102103759D01*
X166658602Y-102103697D01*
X166661961Y-102099733D01*
X166665638Y-102096056D01*
X166676892Y-102080308D01*
X166680398Y-102075638D01*
X166712156Y-102035353D01*
X166715188Y-102026719D01*
X166720514Y-102019266D01*
X166735203Y-101970150D01*
X166737036Y-101964508D01*
X166751390Y-101923633D01*
X166751390Y-101923632D01*
X166754018Y-101916149D01*
X166754500Y-101910584D01*
X166754500Y-101907876D01*
X166754614Y-101905242D01*
X166754643Y-101905144D01*
X166754807Y-101905151D01*
X166754851Y-101904447D01*
X166756713Y-101898222D01*
X166754597Y-101844365D01*
X166754500Y-101839418D01*
X166754500Y-98695548D01*
X166774502Y-98627427D01*
X166828158Y-98580934D01*
X166878064Y-98569572D01*
X171211644Y-98485773D01*
X171214695Y-98485714D01*
X171217713Y-98485363D01*
X171217717Y-98485363D01*
X171236395Y-98483192D01*
X171264300Y-98479949D01*
X171311492Y-98469788D01*
X171315520Y-98468739D01*
X171325691Y-98466089D01*
X171325695Y-98466088D01*
X171332997Y-98464185D01*
X171422139Y-98416168D01*
X171447507Y-98395212D01*
X171473401Y-98373822D01*
X171473403Y-98373820D01*
X171476875Y-98370952D01*
X171526546Y-98316286D01*
X171535426Y-98303160D01*
X173098842Y-95992023D01*
X173153578Y-95946807D01*
X173224071Y-95938362D01*
X173287939Y-95969368D01*
G37*
%TD.AperFunction*%
%TA.AperFunction,Conductor*%
G36*
X173287166Y-82699502D02*
G01*
X173333659Y-82753158D01*
X173345045Y-82805650D01*
X173344729Y-83070829D01*
X173344683Y-83109193D01*
X173324600Y-83177290D01*
X173270889Y-83223719D01*
X173200603Y-83233739D01*
X173136057Y-83204169D01*
X173124728Y-83192998D01*
X173086390Y-83150093D01*
X173086388Y-83150091D01*
X173084516Y-83147996D01*
X173050742Y-83116387D01*
X173036464Y-83109193D01*
X172965844Y-83073613D01*
X172965843Y-83073613D01*
X172960318Y-83070829D01*
X172954355Y-83069177D01*
X172954354Y-83069176D01*
X172926567Y-83061475D01*
X172891901Y-83051868D01*
X172884459Y-83050914D01*
X172823104Y-83043044D01*
X172823098Y-83043044D01*
X172818641Y-83042472D01*
X167427857Y-83124649D01*
X164873391Y-83163589D01*
X164873387Y-83163589D01*
X164870124Y-83163639D01*
X164848743Y-83166185D01*
X164820211Y-83169583D01*
X164820204Y-83169584D01*
X164816990Y-83169967D01*
X164766569Y-83181338D01*
X164765102Y-83181747D01*
X164765088Y-83181750D01*
X164755122Y-83184525D01*
X164741709Y-83188260D01*
X164653722Y-83238363D01*
X164600066Y-83284856D01*
X164567944Y-83318145D01*
X164521013Y-83407864D01*
X164501011Y-83475985D01*
X164490500Y-83549094D01*
X164490500Y-90578313D01*
X164470498Y-90646434D01*
X164448790Y-90671968D01*
X162415110Y-92502280D01*
X162397494Y-92518134D01*
X162333479Y-92548837D01*
X162263027Y-92540057D01*
X162208507Y-92494582D01*
X162187773Y-92436442D01*
X162186521Y-92423314D01*
X162186521Y-92423311D01*
X162186188Y-92419824D01*
X162174787Y-92365369D01*
X162166964Y-92336444D01*
X162162841Y-92329213D01*
X162119875Y-92253871D01*
X162116806Y-92248489D01*
X162086628Y-92213705D01*
X162072120Y-92196982D01*
X162072112Y-92196973D01*
X162070280Y-92194862D01*
X162043699Y-92169244D01*
X162043465Y-92169018D01*
X162043462Y-92169016D01*
X162036974Y-92162763D01*
X161947227Y-92115886D01*
X161941288Y-92114146D01*
X161883409Y-92097189D01*
X161883407Y-92097189D01*
X161879094Y-92095925D01*
X161805977Y-92085458D01*
X153650763Y-92090423D01*
X153647411Y-92090785D01*
X153647409Y-92090785D01*
X153599041Y-92096007D01*
X153599035Y-92096008D01*
X153595682Y-92096370D01*
X153543419Y-92107756D01*
X153541788Y-92108204D01*
X153541779Y-92108206D01*
X153524306Y-92113003D01*
X153524304Y-92113004D01*
X153516709Y-92115089D01*
X153428722Y-92165192D01*
X153375066Y-92211685D01*
X153342944Y-92244974D01*
X153296013Y-92334693D01*
X153276011Y-92402814D01*
X153275371Y-92407262D01*
X153275370Y-92407269D01*
X153266139Y-92471475D01*
X153265500Y-92475923D01*
X153265500Y-94152058D01*
X153265779Y-94164090D01*
X153266321Y-94175767D01*
X153284402Y-94259608D01*
X153310632Y-94325582D01*
X153311899Y-94328090D01*
X153311904Y-94328102D01*
X153314191Y-94332630D01*
X153327046Y-94402454D01*
X153300111Y-94468142D01*
X153295356Y-94473744D01*
X153290764Y-94478844D01*
X153285039Y-94483838D01*
X153193950Y-94613444D01*
X153188859Y-94626502D01*
X153152893Y-94718750D01*
X153109512Y-94774951D01*
X153042633Y-94798778D01*
X152973490Y-94782665D01*
X152924034Y-94731727D01*
X152909500Y-94672980D01*
X152909500Y-92876000D01*
X152903570Y-92820841D01*
X152892184Y-92768499D01*
X152884834Y-92741709D01*
X152864918Y-92706733D01*
X152837794Y-92659101D01*
X152834731Y-92653722D01*
X152788238Y-92600066D01*
X152754949Y-92567944D01*
X152665230Y-92521013D01*
X152655425Y-92518134D01*
X152601432Y-92502280D01*
X152601428Y-92502279D01*
X152597109Y-92501011D01*
X152592661Y-92500371D01*
X152592654Y-92500370D01*
X152528448Y-92491139D01*
X152528441Y-92491139D01*
X152524000Y-92490500D01*
X147285500Y-92490500D01*
X147217379Y-92470498D01*
X147170886Y-92416842D01*
X147159500Y-92364500D01*
X147159500Y-84001000D01*
X147153570Y-83945841D01*
X147142184Y-83893499D01*
X147134834Y-83866709D01*
X147084731Y-83778722D01*
X147038238Y-83725066D01*
X147004949Y-83692944D01*
X146915230Y-83646013D01*
X146905343Y-83643110D01*
X146851432Y-83627280D01*
X146851428Y-83627279D01*
X146847109Y-83626011D01*
X146842661Y-83625371D01*
X146842654Y-83625370D01*
X146778448Y-83616139D01*
X146778441Y-83616139D01*
X146774000Y-83615500D01*
X139650163Y-83615500D01*
X139646860Y-83615850D01*
X139646852Y-83615850D01*
X139599164Y-83620897D01*
X139599161Y-83620898D01*
X139595849Y-83621248D01*
X139592598Y-83621944D01*
X139592591Y-83621945D01*
X139545896Y-83631940D01*
X139545889Y-83631942D01*
X139544271Y-83632288D01*
X139542693Y-83632712D01*
X139542674Y-83632717D01*
X139525836Y-83637246D01*
X139525833Y-83637247D01*
X139518275Y-83639280D01*
X139511446Y-83643109D01*
X139511443Y-83643110D01*
X139435357Y-83685769D01*
X139435354Y-83685771D01*
X139429957Y-83688797D01*
X139375993Y-83734932D01*
X139343652Y-83768005D01*
X139296125Y-83857410D01*
X139294341Y-83863340D01*
X139294340Y-83863342D01*
X139285756Y-83891873D01*
X139275670Y-83925396D01*
X139274999Y-83929851D01*
X139274998Y-83929856D01*
X139265342Y-83993982D01*
X139264672Y-83998432D01*
X139264642Y-84002932D01*
X139195313Y-94408923D01*
X139193863Y-94626502D01*
X139199785Y-94683380D01*
X139211515Y-94737314D01*
X139219411Y-94765733D01*
X139270092Y-94853387D01*
X139316937Y-94906736D01*
X139318956Y-94908659D01*
X139318963Y-94908666D01*
X139328866Y-94918096D01*
X139350438Y-94938639D01*
X139440464Y-94984979D01*
X139446419Y-94986685D01*
X139504382Y-95003291D01*
X139504387Y-95003292D01*
X139508715Y-95004532D01*
X139513174Y-95005143D01*
X139513178Y-95005144D01*
X139568914Y-95012783D01*
X139581890Y-95014561D01*
X142994087Y-94992112D01*
X143062337Y-95011665D01*
X143111445Y-95070186D01*
X143949543Y-97108153D01*
X143966045Y-97148279D01*
X143973455Y-97218887D01*
X143941514Y-97282294D01*
X143880365Y-97318366D01*
X143809420Y-97315652D01*
X143750564Y-97274207D01*
X143711155Y-97224217D01*
X143622180Y-97111353D01*
X143432239Y-96932674D01*
X143217973Y-96784032D01*
X143213783Y-96781966D01*
X143213780Y-96781964D01*
X142988278Y-96670759D01*
X142988275Y-96670758D01*
X142984090Y-96668694D01*
X142735728Y-96589193D01*
X142731121Y-96588443D01*
X142731118Y-96588442D01*
X142482955Y-96548026D01*
X142482956Y-96548026D01*
X142478344Y-96547275D01*
X142351875Y-96545620D01*
X142222267Y-96543923D01*
X142222264Y-96543923D01*
X142217590Y-96543862D01*
X141959196Y-96579028D01*
X141954710Y-96580336D01*
X141954708Y-96580336D01*
X141924321Y-96589193D01*
X141708838Y-96652000D01*
X141472016Y-96761177D01*
X141468111Y-96763737D01*
X141468106Y-96763740D01*
X141257846Y-96901592D01*
X141257841Y-96901596D01*
X141253933Y-96904158D01*
X141156656Y-96990981D01*
X141079689Y-97059677D01*
X141059379Y-97077804D01*
X140892629Y-97278300D01*
X140757345Y-97501240D01*
X140755538Y-97505548D01*
X140755538Y-97505549D01*
X140676155Y-97694857D01*
X140656500Y-97741728D01*
X140592310Y-97994480D01*
X140566183Y-98253944D01*
X140566407Y-98258611D01*
X140566407Y-98258616D01*
X140568851Y-98309499D01*
X140578694Y-98514419D01*
X140629569Y-98770185D01*
X140717690Y-99015621D01*
X140841120Y-99245336D01*
X140843915Y-99249079D01*
X140843917Y-99249082D01*
X140994357Y-99450545D01*
X140994362Y-99450551D01*
X140997149Y-99454283D01*
X141000458Y-99457563D01*
X141000463Y-99457569D01*
X141170291Y-99625921D01*
X141182348Y-99637873D01*
X141186110Y-99640631D01*
X141186113Y-99640634D01*
X141370453Y-99775798D01*
X141392649Y-99792073D01*
X141396780Y-99794247D01*
X141396781Y-99794247D01*
X141619298Y-99911319D01*
X141619304Y-99911321D01*
X141623433Y-99913494D01*
X141869629Y-99999469D01*
X141874222Y-100000341D01*
X142121239Y-100047239D01*
X142121242Y-100047239D01*
X142125828Y-100048110D01*
X142249725Y-100052978D01*
X142381735Y-100058165D01*
X142381740Y-100058165D01*
X142386403Y-100058348D01*
X142479885Y-100048110D01*
X142640976Y-100030468D01*
X142640981Y-100030467D01*
X142645629Y-100029958D01*
X142671606Y-100023119D01*
X142893291Y-99964754D01*
X142897811Y-99963564D01*
X143137410Y-99860625D01*
X143183228Y-99832272D01*
X143251680Y-99813434D01*
X143319450Y-99834595D01*
X143338627Y-99850321D01*
X144633595Y-101145289D01*
X144667621Y-101207601D01*
X144670500Y-101234384D01*
X144670500Y-102306080D01*
X144667951Y-102330028D01*
X144667872Y-102331693D01*
X144665680Y-102341876D01*
X144666904Y-102352217D01*
X144669627Y-102375223D01*
X144669977Y-102381154D01*
X144670072Y-102381146D01*
X144670500Y-102386324D01*
X144670500Y-102391524D01*
X144671354Y-102396653D01*
X144671354Y-102396656D01*
X144673669Y-102410565D01*
X144674506Y-102416443D01*
X144680530Y-102467341D01*
X144684493Y-102475593D01*
X144685996Y-102484626D01*
X144690943Y-102493795D01*
X144690944Y-102493797D01*
X144710334Y-102529732D01*
X144713031Y-102535025D01*
X144731785Y-102574082D01*
X144731788Y-102574086D01*
X144735219Y-102581232D01*
X144738814Y-102585508D01*
X144740737Y-102587431D01*
X144742509Y-102589363D01*
X144742552Y-102589442D01*
X144742428Y-102589555D01*
X144742904Y-102590095D01*
X144745990Y-102595814D01*
X144753635Y-102602881D01*
X144785586Y-102632416D01*
X144789152Y-102635846D01*
X146128596Y-103975290D01*
X146162622Y-104037602D01*
X146165501Y-104064385D01*
X146165501Y-104215652D01*
X146166276Y-104220545D01*
X146166276Y-104220546D01*
X146171816Y-104255524D01*
X146179946Y-104306862D01*
X146235960Y-104416796D01*
X146323204Y-104504040D01*
X146433138Y-104560054D01*
X146442927Y-104561604D01*
X146442929Y-104561605D01*
X146462541Y-104564711D01*
X146524347Y-104574500D01*
X146689966Y-104574500D01*
X146855652Y-104574499D01*
X146880133Y-104570622D01*
X146937064Y-104561606D01*
X146937066Y-104561605D01*
X146946862Y-104560054D01*
X146957928Y-104554416D01*
X147033649Y-104515834D01*
X147047126Y-104508967D01*
X147116903Y-104495863D01*
X147182688Y-104522563D01*
X147223594Y-104580591D01*
X147230232Y-104616282D01*
X147230390Y-104620289D01*
X147230403Y-104620630D01*
X147230500Y-104625582D01*
X147230500Y-104731474D01*
X147210498Y-104799595D01*
X147193595Y-104820569D01*
X147155960Y-104858204D01*
X147099946Y-104968138D01*
X147085500Y-105059347D01*
X147085501Y-105490652D01*
X147099946Y-105581862D01*
X147104447Y-105590695D01*
X147104449Y-105590700D01*
X147109663Y-105600933D01*
X147155960Y-105691796D01*
X147243204Y-105779040D01*
X147353138Y-105835054D01*
X147362927Y-105836604D01*
X147362929Y-105836605D01*
X147378980Y-105839147D01*
X147444347Y-105849500D01*
X147609966Y-105849500D01*
X147775652Y-105849499D01*
X147780546Y-105848724D01*
X147857064Y-105836606D01*
X147857066Y-105836605D01*
X147866862Y-105835054D01*
X147905956Y-105815135D01*
X147967964Y-105783540D01*
X147967963Y-105783540D01*
X147976796Y-105779040D01*
X148064040Y-105691796D01*
X148120054Y-105581862D01*
X148134500Y-105490653D01*
X148134499Y-105059348D01*
X148131549Y-105040723D01*
X148121606Y-104977936D01*
X148121605Y-104977934D01*
X148120054Y-104968138D01*
X148098867Y-104926555D01*
X148068540Y-104867036D01*
X148064040Y-104858204D01*
X148057028Y-104851192D01*
X148051201Y-104843172D01*
X148054109Y-104841059D01*
X148028760Y-104794638D01*
X148033825Y-104723823D01*
X148041010Y-104708149D01*
X148047156Y-104700353D01*
X148050189Y-104691716D01*
X148055513Y-104684266D01*
X148070202Y-104635151D01*
X148072034Y-104629512D01*
X148074285Y-104623104D01*
X148080534Y-104605308D01*
X148082551Y-104599566D01*
X148123996Y-104541921D01*
X148190026Y-104515834D01*
X148259678Y-104529587D01*
X148290528Y-104552222D01*
X148358595Y-104620289D01*
X148392621Y-104682601D01*
X148395500Y-104709384D01*
X148395500Y-104831834D01*
X148410502Y-104926555D01*
X148468674Y-105040723D01*
X148559277Y-105131326D01*
X148673445Y-105189498D01*
X148768166Y-105204500D01*
X150006834Y-105204500D01*
X150101555Y-105189498D01*
X150215723Y-105131326D01*
X150306326Y-105040723D01*
X150364498Y-104926555D01*
X150379500Y-104831834D01*
X150379500Y-104468166D01*
X150364498Y-104373445D01*
X150306326Y-104259277D01*
X150215723Y-104168674D01*
X150101555Y-104110502D01*
X150006834Y-104095500D01*
X148959386Y-104095500D01*
X148891265Y-104075498D01*
X148870291Y-104058596D01*
X148581476Y-103769782D01*
X148566339Y-103751039D01*
X148565221Y-103749810D01*
X148559571Y-103741060D01*
X148551393Y-103734613D01*
X148551391Y-103734611D01*
X148533200Y-103720271D01*
X148528759Y-103716325D01*
X148528697Y-103716398D01*
X148524733Y-103713039D01*
X148521056Y-103709362D01*
X148505308Y-103698108D01*
X148500638Y-103694602D01*
X148460353Y-103662844D01*
X148451719Y-103659812D01*
X148444266Y-103654486D01*
X148395150Y-103639797D01*
X148389508Y-103637964D01*
X148348633Y-103623610D01*
X148348632Y-103623610D01*
X148341149Y-103620982D01*
X148335584Y-103620500D01*
X148332876Y-103620500D01*
X148330242Y-103620386D01*
X148330144Y-103620357D01*
X148330151Y-103620193D01*
X148329447Y-103620149D01*
X148323222Y-103618287D01*
X148269365Y-103620403D01*
X148264418Y-103620500D01*
X148253419Y-103620500D01*
X148185298Y-103600498D01*
X148165473Y-103581771D01*
X148164040Y-103583204D01*
X148076796Y-103495960D01*
X147966862Y-103439946D01*
X147967605Y-103438488D01*
X147918278Y-103404759D01*
X147890641Y-103339362D01*
X147902748Y-103269406D01*
X147950754Y-103217100D01*
X147965822Y-103210219D01*
X147966862Y-103210054D01*
X147972730Y-103207064D01*
X147972739Y-103207060D01*
X148065456Y-103159818D01*
X148076796Y-103154040D01*
X148164040Y-103066796D01*
X148220054Y-102956862D01*
X148234500Y-102865653D01*
X148234500Y-102714384D01*
X148254502Y-102646263D01*
X148271405Y-102625289D01*
X148408167Y-102488527D01*
X148470479Y-102454501D01*
X148541294Y-102459566D01*
X148598130Y-102502113D01*
X148622941Y-102568633D01*
X148622184Y-102594064D01*
X148618209Y-102624262D01*
X148617279Y-102631326D01*
X148615729Y-102643096D01*
X148633113Y-102800553D01*
X148635723Y-102807684D01*
X148635723Y-102807686D01*
X148661497Y-102878116D01*
X148687553Y-102949319D01*
X148691789Y-102955622D01*
X148691789Y-102955623D01*
X148771206Y-103073807D01*
X148775908Y-103080805D01*
X148781527Y-103085918D01*
X148781528Y-103085919D01*
X148854299Y-103152135D01*
X148891222Y-103212775D01*
X148895500Y-103245329D01*
X148895500Y-103381834D01*
X148910502Y-103476555D01*
X148968674Y-103590723D01*
X149059277Y-103681326D01*
X149173445Y-103739498D01*
X149268166Y-103754500D01*
X149631834Y-103754500D01*
X149726555Y-103739498D01*
X149840723Y-103681326D01*
X149931326Y-103590723D01*
X149989498Y-103476555D01*
X150004500Y-103381834D01*
X150004500Y-102305500D01*
X150024502Y-102237379D01*
X150078158Y-102190886D01*
X150130500Y-102179500D01*
X150669500Y-102179500D01*
X150737621Y-102199502D01*
X150784114Y-102253158D01*
X150795500Y-102305500D01*
X150795500Y-103381834D01*
X150810502Y-103476555D01*
X150868674Y-103590723D01*
X150959277Y-103681326D01*
X151073445Y-103739498D01*
X151168166Y-103754500D01*
X151531834Y-103754500D01*
X151626555Y-103739498D01*
X151740723Y-103681326D01*
X151831326Y-103590723D01*
X151889498Y-103476555D01*
X151904500Y-103381834D01*
X151904500Y-102293166D01*
X151889498Y-102198445D01*
X151831326Y-102084277D01*
X151740723Y-101993674D01*
X151731893Y-101989175D01*
X151731889Y-101989172D01*
X151688745Y-101967190D01*
X151654394Y-101938771D01*
X151654010Y-101939186D01*
X151646460Y-101932207D01*
X151638106Y-101924484D01*
X151614414Y-101902584D01*
X151610848Y-101899154D01*
X151406289Y-101694595D01*
X151372263Y-101632283D01*
X151377328Y-101561468D01*
X151419875Y-101504632D01*
X151486395Y-101479821D01*
X151495384Y-101479500D01*
X151531834Y-101479500D01*
X151626555Y-101464498D01*
X151740723Y-101406326D01*
X151831326Y-101315723D01*
X151889498Y-101201555D01*
X151904500Y-101106834D01*
X151904500Y-100018166D01*
X151903726Y-100013278D01*
X151903725Y-100013268D01*
X151902789Y-100007360D01*
X151911887Y-99936949D01*
X151938142Y-99898552D01*
X151970289Y-99866405D01*
X152032601Y-99832379D01*
X152059384Y-99829500D01*
X152990616Y-99829500D01*
X153058737Y-99849502D01*
X153079711Y-99866405D01*
X153183595Y-99970289D01*
X153217621Y-100032601D01*
X153220500Y-100059384D01*
X153220500Y-100871080D01*
X153217951Y-100895028D01*
X153217872Y-100896693D01*
X153215680Y-100906876D01*
X153216904Y-100917217D01*
X153219627Y-100940223D01*
X153219977Y-100946154D01*
X153220072Y-100946146D01*
X153220500Y-100951324D01*
X153220500Y-100956524D01*
X153221354Y-100961653D01*
X153221354Y-100961656D01*
X153223669Y-100975565D01*
X153224506Y-100981443D01*
X153227614Y-101007699D01*
X153230530Y-101032341D01*
X153234493Y-101040593D01*
X153235996Y-101049626D01*
X153240943Y-101058795D01*
X153240944Y-101058797D01*
X153260334Y-101094732D01*
X153263031Y-101100025D01*
X153281785Y-101139082D01*
X153281788Y-101139086D01*
X153285219Y-101146232D01*
X153288814Y-101150508D01*
X153290737Y-101152431D01*
X153292509Y-101154363D01*
X153292552Y-101154442D01*
X153292428Y-101154555D01*
X153292904Y-101155095D01*
X153295990Y-101160814D01*
X153303635Y-101167881D01*
X153335586Y-101197416D01*
X153339152Y-101200846D01*
X153503522Y-101365216D01*
X153518664Y-101383964D01*
X153519779Y-101385189D01*
X153525429Y-101393940D01*
X153533607Y-101400387D01*
X153533609Y-101400389D01*
X153551800Y-101414729D01*
X153556241Y-101418675D01*
X153556303Y-101418602D01*
X153560267Y-101421961D01*
X153563944Y-101425638D01*
X153579692Y-101436892D01*
X153584362Y-101440398D01*
X153624647Y-101472156D01*
X153633281Y-101475188D01*
X153640734Y-101480514D01*
X153689850Y-101495203D01*
X153695492Y-101497036D01*
X153736367Y-101511390D01*
X153743851Y-101514018D01*
X153749416Y-101514500D01*
X153752124Y-101514500D01*
X153754758Y-101514614D01*
X153754856Y-101514643D01*
X153754849Y-101514807D01*
X153755553Y-101514851D01*
X153761778Y-101516713D01*
X153815635Y-101514597D01*
X153820582Y-101514500D01*
X153831474Y-101514500D01*
X153899595Y-101534502D01*
X153920569Y-101551405D01*
X153958204Y-101589040D01*
X154068138Y-101645054D01*
X154077927Y-101646604D01*
X154077929Y-101646605D01*
X154104421Y-101650801D01*
X154159347Y-101659500D01*
X154374956Y-101659500D01*
X154590652Y-101659499D01*
X154595546Y-101658724D01*
X154672064Y-101646606D01*
X154672066Y-101646605D01*
X154681862Y-101645054D01*
X154702576Y-101634500D01*
X154782964Y-101593540D01*
X154782963Y-101593540D01*
X154791796Y-101589040D01*
X154879040Y-101501796D01*
X154935054Y-101391862D01*
X154936643Y-101381834D01*
X154942852Y-101342624D01*
X154949500Y-101300653D01*
X154949499Y-100969348D01*
X154946887Y-100952854D01*
X154936606Y-100887936D01*
X154936605Y-100887934D01*
X154935054Y-100878138D01*
X154929993Y-100868204D01*
X154885539Y-100780960D01*
X154879040Y-100768204D01*
X154824931Y-100714095D01*
X154790905Y-100651783D01*
X154795970Y-100580968D01*
X154824931Y-100535905D01*
X154879040Y-100481796D01*
X154935054Y-100371862D01*
X154938625Y-100349319D01*
X154944437Y-100312621D01*
X154949500Y-100280653D01*
X154949499Y-99949348D01*
X154948644Y-99943949D01*
X154936606Y-99867936D01*
X154936605Y-99867934D01*
X154935054Y-99858138D01*
X154930551Y-99849301D01*
X154930550Y-99849297D01*
X154880767Y-99751592D01*
X154867663Y-99681816D01*
X154894363Y-99616031D01*
X154952391Y-99575125D01*
X154991648Y-99568398D01*
X155703446Y-99560576D01*
X155771783Y-99579828D01*
X155818863Y-99632969D01*
X155829738Y-99703128D01*
X155818415Y-99738235D01*
X155818950Y-99738444D01*
X155764207Y-99878854D01*
X155761406Y-99886037D01*
X155760414Y-99893570D01*
X155760414Y-99893571D01*
X155742111Y-100032601D01*
X155740729Y-100043096D01*
X155758113Y-100200553D01*
X155760723Y-100207684D01*
X155760723Y-100207686D01*
X155799124Y-100312621D01*
X155812553Y-100349319D01*
X155816789Y-100355622D01*
X155816789Y-100355623D01*
X155879453Y-100448876D01*
X155900908Y-100480805D01*
X155906527Y-100485918D01*
X155906528Y-100485919D01*
X156009803Y-100579891D01*
X156018076Y-100587419D01*
X156157293Y-100663008D01*
X156310522Y-100703207D01*
X156394477Y-100704526D01*
X156461319Y-100705576D01*
X156461322Y-100705576D01*
X156468916Y-100705695D01*
X156623332Y-100670329D01*
X156747390Y-100607935D01*
X156804004Y-100594500D01*
X157156474Y-100594500D01*
X157224595Y-100614502D01*
X157245569Y-100631405D01*
X157250069Y-100635905D01*
X157284095Y-100698217D01*
X157279030Y-100769032D01*
X157250069Y-100814095D01*
X157195960Y-100868204D01*
X157139946Y-100978138D01*
X157125500Y-101069347D01*
X157125501Y-101400652D01*
X157126276Y-101405543D01*
X157126276Y-101405546D01*
X157137072Y-101473713D01*
X157139946Y-101491862D01*
X157144447Y-101500695D01*
X157144449Y-101500700D01*
X157151530Y-101514597D01*
X157195960Y-101601796D01*
X157283204Y-101689040D01*
X157280402Y-101691842D01*
X157311909Y-101732690D01*
X157320500Y-101778419D01*
X157320500Y-101969501D01*
X157300498Y-102037622D01*
X157246842Y-102084115D01*
X157194500Y-102095501D01*
X157149934Y-102095501D01*
X157115418Y-102102366D01*
X157087874Y-102107844D01*
X157087872Y-102107845D01*
X157075699Y-102110266D01*
X157065379Y-102117161D01*
X157065378Y-102117162D01*
X157037777Y-102135605D01*
X156991516Y-102166516D01*
X156935266Y-102250699D01*
X156920500Y-102324933D01*
X156920501Y-103475066D01*
X156935266Y-103549301D01*
X156942161Y-103559620D01*
X156942162Y-103559622D01*
X156975388Y-103609347D01*
X156991516Y-103633484D01*
X157075699Y-103689734D01*
X157149933Y-103704500D01*
X157724907Y-103704500D01*
X158300066Y-103704499D01*
X158340731Y-103696411D01*
X158362126Y-103692156D01*
X158362128Y-103692155D01*
X158374301Y-103689734D01*
X158384621Y-103682839D01*
X158384622Y-103682838D01*
X158448168Y-103640377D01*
X158458484Y-103633484D01*
X158514734Y-103549301D01*
X158529500Y-103475067D01*
X158529499Y-102324934D01*
X158522388Y-102289182D01*
X158517156Y-102262874D01*
X158517155Y-102262872D01*
X158514734Y-102250699D01*
X158498360Y-102226193D01*
X158465377Y-102176832D01*
X158458484Y-102166516D01*
X158374301Y-102110266D01*
X158300067Y-102095500D01*
X158205500Y-102095500D01*
X158137379Y-102075498D01*
X158090886Y-102021842D01*
X158079500Y-101969500D01*
X158079500Y-101778419D01*
X158099502Y-101710298D01*
X158118229Y-101690473D01*
X158116796Y-101689040D01*
X158204040Y-101601796D01*
X158260054Y-101491862D01*
X158261852Y-101480514D01*
X158268031Y-101441494D01*
X158274500Y-101400653D01*
X158274499Y-101069348D01*
X158273718Y-101064416D01*
X158261606Y-100987936D01*
X158261605Y-100987934D01*
X158260054Y-100978138D01*
X158245021Y-100948633D01*
X158212338Y-100884489D01*
X158204040Y-100868204D01*
X158149931Y-100814095D01*
X158115905Y-100751783D01*
X158120970Y-100680968D01*
X158149931Y-100635905D01*
X158154431Y-100631405D01*
X158216743Y-100597379D01*
X158243526Y-100594500D01*
X158281474Y-100594500D01*
X158349595Y-100614502D01*
X158370569Y-100631405D01*
X158433204Y-100694040D01*
X158543138Y-100750054D01*
X158552927Y-100751604D01*
X158552929Y-100751605D01*
X158579421Y-100755801D01*
X158634347Y-100764500D01*
X158849956Y-100764500D01*
X159065652Y-100764499D01*
X159070546Y-100763724D01*
X159147064Y-100751606D01*
X159147066Y-100751605D01*
X159156862Y-100750054D01*
X159178738Y-100738908D01*
X159248805Y-100703207D01*
X159266796Y-100694040D01*
X159354040Y-100606796D01*
X159410054Y-100496862D01*
X159424500Y-100405653D01*
X159424499Y-100074348D01*
X159421936Y-100058165D01*
X159411606Y-99992936D01*
X159411605Y-99992934D01*
X159410054Y-99983138D01*
X159354040Y-99873204D01*
X159266796Y-99785960D01*
X159257966Y-99781461D01*
X159257962Y-99781458D01*
X159218217Y-99761208D01*
X159215124Y-99759632D01*
X159163509Y-99710885D01*
X159146442Y-99641970D01*
X159169342Y-99574768D01*
X159224939Y-99530615D01*
X159270941Y-99521373D01*
X160078462Y-99512499D01*
X160146799Y-99531751D01*
X160183791Y-99568258D01*
X160185219Y-99571232D01*
X160188814Y-99575508D01*
X160190737Y-99577431D01*
X160192509Y-99579363D01*
X160192552Y-99579442D01*
X160192428Y-99579555D01*
X160192904Y-99580095D01*
X160195990Y-99585814D01*
X160203635Y-99592881D01*
X160235586Y-99622416D01*
X160239152Y-99625846D01*
X160643522Y-100030216D01*
X160658665Y-100048965D01*
X160659778Y-100050189D01*
X160665429Y-100058940D01*
X160673607Y-100065387D01*
X160675759Y-100067752D01*
X160706811Y-100131599D01*
X160698415Y-100202097D01*
X160671660Y-100241646D01*
X160094784Y-100818522D01*
X160076036Y-100833664D01*
X160074811Y-100834779D01*
X160066060Y-100840429D01*
X160059613Y-100848607D01*
X160059611Y-100848609D01*
X160045271Y-100866800D01*
X160041325Y-100871241D01*
X160041398Y-100871303D01*
X160038039Y-100875267D01*
X160034362Y-100878944D01*
X160023108Y-100894692D01*
X160019602Y-100899362D01*
X159987844Y-100939647D01*
X159984812Y-100948281D01*
X159979486Y-100955734D01*
X159965530Y-101002401D01*
X159964799Y-101004844D01*
X159962964Y-101010492D01*
X159948610Y-101051367D01*
X159945982Y-101058851D01*
X159945500Y-101064416D01*
X159945500Y-101067124D01*
X159945386Y-101069758D01*
X159945357Y-101069856D01*
X159945193Y-101069849D01*
X159945149Y-101070553D01*
X159943287Y-101076778D01*
X159944095Y-101097349D01*
X159945403Y-101130635D01*
X159945500Y-101135582D01*
X159945500Y-104631080D01*
X159942951Y-104655028D01*
X159942872Y-104656693D01*
X159940680Y-104666876D01*
X159941904Y-104677217D01*
X159944627Y-104700223D01*
X159944977Y-104706154D01*
X159945072Y-104706146D01*
X159945500Y-104711324D01*
X159945500Y-104716524D01*
X159946354Y-104721653D01*
X159946354Y-104721656D01*
X159948669Y-104735565D01*
X159949506Y-104741443D01*
X159953795Y-104777678D01*
X159955530Y-104792341D01*
X159959493Y-104800593D01*
X159960996Y-104809626D01*
X159965943Y-104818795D01*
X159965944Y-104818797D01*
X159985334Y-104854732D01*
X159988031Y-104860025D01*
X160006785Y-104899082D01*
X160006788Y-104899086D01*
X160010219Y-104906232D01*
X160013814Y-104910508D01*
X160015737Y-104912431D01*
X160017509Y-104914363D01*
X160017552Y-104914442D01*
X160017428Y-104914555D01*
X160017904Y-104915095D01*
X160020990Y-104920814D01*
X160028635Y-104927881D01*
X160060586Y-104957416D01*
X160064152Y-104960846D01*
X161353596Y-106250290D01*
X161387622Y-106312602D01*
X161390501Y-106339385D01*
X161390501Y-106490652D01*
X161391276Y-106495545D01*
X161391276Y-106495546D01*
X161401458Y-106559836D01*
X161404946Y-106581862D01*
X161460960Y-106691796D01*
X161548204Y-106779040D01*
X161658138Y-106835054D01*
X161667927Y-106836604D01*
X161667929Y-106836605D01*
X161694421Y-106840801D01*
X161749347Y-106849500D01*
X161914966Y-106849500D01*
X162080652Y-106849499D01*
X162085546Y-106848724D01*
X162162064Y-106836606D01*
X162162066Y-106836605D01*
X162171862Y-106835054D01*
X162188543Y-106826555D01*
X162272964Y-106783540D01*
X162272963Y-106783540D01*
X162281796Y-106779040D01*
X162335905Y-106724931D01*
X162398217Y-106690905D01*
X162469032Y-106695970D01*
X162514095Y-106724931D01*
X162568204Y-106779040D01*
X162678138Y-106835054D01*
X162687927Y-106836604D01*
X162687929Y-106836605D01*
X162714421Y-106840801D01*
X162769347Y-106849500D01*
X162934966Y-106849500D01*
X163100652Y-106849499D01*
X163105546Y-106848724D01*
X163182064Y-106836606D01*
X163182066Y-106836605D01*
X163191862Y-106835054D01*
X163208543Y-106826555D01*
X163292964Y-106783540D01*
X163292963Y-106783540D01*
X163301796Y-106779040D01*
X163389040Y-106691796D01*
X163391842Y-106694598D01*
X163432690Y-106663091D01*
X163478419Y-106654500D01*
X163678430Y-106654500D01*
X163746551Y-106674502D01*
X163793044Y-106728158D01*
X163796409Y-106736264D01*
X163804577Y-106758050D01*
X163814133Y-106783540D01*
X163824372Y-106810853D01*
X163905670Y-106919330D01*
X163912850Y-106924711D01*
X163935049Y-106941348D01*
X163977565Y-106998207D01*
X163982591Y-107069026D01*
X163948532Y-107131319D01*
X163886201Y-107165310D01*
X163859424Y-107168175D01*
X152325263Y-107162577D01*
X152257152Y-107142542D01*
X152210685Y-107088864D01*
X152200615Y-107018585D01*
X152230140Y-106954018D01*
X152281208Y-106919604D01*
X152282341Y-106919470D01*
X152290593Y-106915507D01*
X152299626Y-106914004D01*
X152308795Y-106909057D01*
X152308797Y-106909056D01*
X152344732Y-106889666D01*
X152350025Y-106886969D01*
X152389082Y-106868215D01*
X152389086Y-106868212D01*
X152396232Y-106864781D01*
X152400508Y-106861186D01*
X152402431Y-106859263D01*
X152404363Y-106857491D01*
X152404442Y-106857448D01*
X152404555Y-106857572D01*
X152405095Y-106857096D01*
X152410814Y-106854010D01*
X152447417Y-106814413D01*
X152450846Y-106810848D01*
X153720289Y-105541405D01*
X153782601Y-105507379D01*
X153809384Y-105504500D01*
X154497756Y-105504500D01*
X154512917Y-105502853D01*
X154551597Y-105498651D01*
X154551598Y-105498651D01*
X154559448Y-105497798D01*
X154566841Y-105495026D01*
X154566843Y-105495026D01*
X154605046Y-105480704D01*
X154694764Y-105447071D01*
X154701943Y-105441691D01*
X154701946Y-105441689D01*
X154803224Y-105365785D01*
X154810404Y-105360404D01*
X154851668Y-105305346D01*
X154891689Y-105251946D01*
X154891691Y-105251943D01*
X154897071Y-105244764D01*
X154930704Y-105155046D01*
X154945026Y-105116843D01*
X154945026Y-105116841D01*
X154947798Y-105109448D01*
X154954500Y-105047756D01*
X154954500Y-104452244D01*
X154947798Y-104390552D01*
X154897071Y-104255236D01*
X154891691Y-104248057D01*
X154891689Y-104248054D01*
X154815785Y-104146776D01*
X154810404Y-104139596D01*
X154787011Y-104122064D01*
X154701946Y-104058311D01*
X154701943Y-104058309D01*
X154694764Y-104052929D01*
X154583397Y-104011180D01*
X154566843Y-104004974D01*
X154566841Y-104004974D01*
X154559448Y-104002202D01*
X154551598Y-104001349D01*
X154551597Y-104001349D01*
X154501153Y-103995869D01*
X154501152Y-103995869D01*
X154497756Y-103995500D01*
X153452244Y-103995500D01*
X153448848Y-103995869D01*
X153448847Y-103995869D01*
X153398403Y-104001349D01*
X153398402Y-104001349D01*
X153390552Y-104002202D01*
X153383159Y-104004974D01*
X153383157Y-104004974D01*
X153366603Y-104011180D01*
X153255236Y-104052929D01*
X153248057Y-104058309D01*
X153248054Y-104058311D01*
X153162989Y-104122064D01*
X153139596Y-104139596D01*
X153134215Y-104146776D01*
X153058311Y-104248054D01*
X153058309Y-104248057D01*
X153052929Y-104255236D01*
X153002202Y-104390552D01*
X152995500Y-104452244D01*
X152995500Y-105047756D01*
X152995869Y-105051152D01*
X152995869Y-105051153D01*
X152997298Y-105064303D01*
X153001445Y-105102481D01*
X153001445Y-105102484D01*
X153002202Y-105109448D01*
X153001075Y-105109570D01*
X152997763Y-105172990D01*
X152967978Y-105220328D01*
X152054711Y-106133595D01*
X151992399Y-106167621D01*
X151965616Y-106170500D01*
X150369739Y-106170500D01*
X150301618Y-106150498D01*
X150280644Y-106133595D01*
X150215723Y-106068674D01*
X150101555Y-106010502D01*
X150006834Y-105995500D01*
X148768166Y-105995500D01*
X148673445Y-106010502D01*
X148559277Y-106068674D01*
X148468674Y-106159277D01*
X148410502Y-106273445D01*
X148395500Y-106368166D01*
X148395500Y-106731834D01*
X148410502Y-106826555D01*
X148468674Y-106940723D01*
X148475686Y-106947735D01*
X148481513Y-106955755D01*
X148479773Y-106957019D01*
X148507547Y-107007882D01*
X148502482Y-107078697D01*
X148459935Y-107135533D01*
X148393415Y-107160344D01*
X148384368Y-107160665D01*
X142710915Y-107157912D01*
X142699890Y-107157418D01*
X142688001Y-107153930D01*
X142675658Y-107155260D01*
X142664795Y-107154290D01*
X142652145Y-107154121D01*
X142376513Y-107116960D01*
X142317642Y-107109023D01*
X142306485Y-107107004D01*
X141948090Y-107025344D01*
X141937160Y-107022331D01*
X141587538Y-106908778D01*
X141576924Y-106904794D01*
X141238941Y-106760281D01*
X141228727Y-106755359D01*
X141118465Y-106695970D01*
X140905090Y-106581043D01*
X140895378Y-106575233D01*
X140588710Y-106372523D01*
X140579556Y-106365861D01*
X140292364Y-106136416D01*
X140283835Y-106128950D01*
X140238423Y-106085432D01*
X140018432Y-105874619D01*
X140010608Y-105866414D01*
X139769140Y-105589253D01*
X139762084Y-105580378D01*
X139756070Y-105572071D01*
X139602816Y-105360404D01*
X139546514Y-105282642D01*
X139540285Y-105273169D01*
X139352346Y-104957253D01*
X139346994Y-104947258D01*
X139188221Y-104615743D01*
X139183788Y-104605308D01*
X139055450Y-104260838D01*
X139051974Y-104250046D01*
X138955124Y-103895449D01*
X138952632Y-103884389D01*
X138927051Y-103741060D01*
X138888047Y-103522515D01*
X138886560Y-103511282D01*
X138857368Y-103175035D01*
X138857802Y-103162345D01*
X138857349Y-103151470D01*
X138859262Y-103139210D01*
X138856337Y-103127151D01*
X138855873Y-103116001D01*
X138854500Y-103104513D01*
X138854500Y-82805500D01*
X138874502Y-82737379D01*
X138928158Y-82690886D01*
X138980500Y-82679500D01*
X173219045Y-82679500D01*
X173287166Y-82699502D01*
G37*
%TD.AperFunction*%
%TA.AperFunction,Conductor*%
G36*
X147145467Y-101249127D02*
G01*
X147194578Y-101300953D01*
X147245960Y-101401796D01*
X147333204Y-101489040D01*
X147330402Y-101491842D01*
X147361909Y-101532690D01*
X147370500Y-101578419D01*
X147370500Y-102066474D01*
X147350498Y-102134595D01*
X147333595Y-102155569D01*
X147255960Y-102233204D01*
X147199946Y-102343138D01*
X147185500Y-102434347D01*
X147185501Y-102865652D01*
X147186276Y-102870543D01*
X147186276Y-102870546D01*
X147197622Y-102942185D01*
X147199946Y-102956862D01*
X147255960Y-103066796D01*
X147343204Y-103154040D01*
X147367203Y-103166268D01*
X147453138Y-103210054D01*
X147452395Y-103211512D01*
X147501722Y-103245241D01*
X147529359Y-103310638D01*
X147517252Y-103380594D01*
X147469246Y-103432900D01*
X147454178Y-103439781D01*
X147453138Y-103439946D01*
X147447270Y-103442936D01*
X147447261Y-103442940D01*
X147377946Y-103478258D01*
X147343204Y-103495960D01*
X147289095Y-103550069D01*
X147226783Y-103584095D01*
X147155968Y-103579030D01*
X147110905Y-103550069D01*
X147056796Y-103495960D01*
X146946862Y-103439946D01*
X146937073Y-103438396D01*
X146937071Y-103438395D01*
X146902375Y-103432900D01*
X146855653Y-103425500D01*
X146838018Y-103425500D01*
X146704385Y-103425501D01*
X146636265Y-103405499D01*
X146615290Y-103388596D01*
X145466405Y-102239711D01*
X145432379Y-102177399D01*
X145429500Y-102150616D01*
X145429500Y-101661411D01*
X145449502Y-101593290D01*
X145503158Y-101546797D01*
X145573432Y-101536693D01*
X145628011Y-101558847D01*
X145633204Y-101564040D01*
X145642037Y-101568541D01*
X145642039Y-101568542D01*
X145680073Y-101587921D01*
X145743138Y-101620054D01*
X145752927Y-101621604D01*
X145752929Y-101621605D01*
X145779421Y-101625801D01*
X145834347Y-101634500D01*
X145885688Y-101634500D01*
X146102665Y-101634499D01*
X146134636Y-101638623D01*
X146285522Y-101678207D01*
X146369477Y-101679526D01*
X146436319Y-101680576D01*
X146436322Y-101680576D01*
X146443916Y-101680695D01*
X146598332Y-101645329D01*
X146684889Y-101601796D01*
X146733072Y-101577563D01*
X146733075Y-101577561D01*
X146739855Y-101574151D01*
X146745626Y-101569222D01*
X146745629Y-101569220D01*
X146854536Y-101476204D01*
X146854536Y-101476203D01*
X146860314Y-101471269D01*
X146952755Y-101342624D01*
X146965404Y-101311159D01*
X147009371Y-101255415D01*
X147076496Y-101232290D01*
X147145467Y-101249127D01*
G37*
%TD.AperFunction*%
%TA.AperFunction,Conductor*%
G36*
X161889183Y-97223590D02*
G01*
X161945746Y-97266499D01*
X161970130Y-97333177D01*
X161970395Y-97341944D01*
X161966152Y-98258616D01*
X161966100Y-98269745D01*
X161972441Y-98327973D01*
X161984860Y-98383104D01*
X161993425Y-98412770D01*
X161997554Y-98419706D01*
X161997556Y-98419710D01*
X162033038Y-98479309D01*
X162045220Y-98499772D01*
X162092741Y-98552519D01*
X162126647Y-98583993D01*
X162134709Y-98588013D01*
X162134711Y-98588015D01*
X162174391Y-98607803D01*
X162217256Y-98629180D01*
X162285751Y-98647861D01*
X162290214Y-98648415D01*
X162290220Y-98648416D01*
X162327567Y-98653050D01*
X162359049Y-98656956D01*
X162533976Y-98653573D01*
X165867064Y-98589122D01*
X165935559Y-98607803D01*
X165983080Y-98660550D01*
X165995500Y-98715098D01*
X165995500Y-100244500D01*
X165975498Y-100312621D01*
X165921842Y-100359114D01*
X165869500Y-100370500D01*
X165647204Y-100370501D01*
X165473956Y-100370501D01*
X165451863Y-100374000D01*
X165391371Y-100383580D01*
X165391369Y-100383581D01*
X165381573Y-100385132D01*
X165372736Y-100389635D01*
X165372735Y-100389635D01*
X165354501Y-100398926D01*
X165270229Y-100441865D01*
X165181865Y-100530229D01*
X165125132Y-100641573D01*
X165110500Y-100733955D01*
X165110501Y-101076044D01*
X165111276Y-101080937D01*
X165122850Y-101154016D01*
X165125132Y-101168427D01*
X165181865Y-101279771D01*
X165218605Y-101316511D01*
X165252631Y-101378823D01*
X165247566Y-101449638D01*
X165218609Y-101494696D01*
X165054847Y-101658458D01*
X164992537Y-101692482D01*
X164921721Y-101687417D01*
X164895260Y-101673211D01*
X164890723Y-101668674D01*
X164776555Y-101610502D01*
X164681834Y-101595500D01*
X163593166Y-101595500D01*
X163498445Y-101610502D01*
X163384277Y-101668674D01*
X163293674Y-101759277D01*
X163235502Y-101873445D01*
X163220500Y-101968166D01*
X163220500Y-102331834D01*
X163235502Y-102426555D01*
X163293674Y-102540723D01*
X163384277Y-102631326D01*
X163498445Y-102689498D01*
X163593166Y-102704500D01*
X163632000Y-102704500D01*
X163700121Y-102724502D01*
X163746614Y-102778158D01*
X163758000Y-102830500D01*
X163758000Y-102878116D01*
X163737998Y-102946237D01*
X163721095Y-102967211D01*
X163418391Y-103269915D01*
X163356079Y-103303941D01*
X163285264Y-103298876D01*
X163272094Y-103293087D01*
X163225699Y-103269448D01*
X163225695Y-103269447D01*
X163216862Y-103264946D01*
X163207073Y-103263396D01*
X163207071Y-103263395D01*
X163180579Y-103259199D01*
X163125653Y-103250500D01*
X162960034Y-103250500D01*
X162794348Y-103250501D01*
X162789455Y-103251276D01*
X162789454Y-103251276D01*
X162712936Y-103263394D01*
X162712934Y-103263395D01*
X162703138Y-103264946D01*
X162694301Y-103269449D01*
X162694300Y-103269449D01*
X162658000Y-103287945D01*
X162593204Y-103320960D01*
X162539095Y-103375069D01*
X162476783Y-103409095D01*
X162405968Y-103404030D01*
X162360905Y-103375069D01*
X162306796Y-103320960D01*
X162297964Y-103316460D01*
X162293937Y-103313534D01*
X162250584Y-103257311D01*
X162242000Y-103211600D01*
X162242000Y-102830500D01*
X162262002Y-102762379D01*
X162315658Y-102715886D01*
X162368000Y-102704500D01*
X162406834Y-102704500D01*
X162501555Y-102689498D01*
X162615723Y-102631326D01*
X162706326Y-102540723D01*
X162764498Y-102426555D01*
X162779500Y-102331834D01*
X162779500Y-101968166D01*
X162764498Y-101873445D01*
X162729424Y-101804609D01*
X162710827Y-101768110D01*
X162710826Y-101768109D01*
X162706326Y-101759277D01*
X162699315Y-101752266D01*
X162696987Y-101749062D01*
X162673128Y-101682195D01*
X162689207Y-101613043D01*
X162696989Y-101600935D01*
X162699314Y-101597735D01*
X162706326Y-101590723D01*
X162708806Y-101585856D01*
X162748542Y-101551100D01*
X162756516Y-101546797D01*
X162769752Y-101539656D01*
X162775025Y-101536969D01*
X162814082Y-101518215D01*
X162814086Y-101518212D01*
X162821232Y-101514781D01*
X162825508Y-101511186D01*
X162827431Y-101509263D01*
X162829363Y-101507491D01*
X162829442Y-101507448D01*
X162829555Y-101507572D01*
X162830095Y-101507096D01*
X162835814Y-101504010D01*
X162843168Y-101496055D01*
X162871221Y-101465707D01*
X162872417Y-101464413D01*
X162875846Y-101460848D01*
X163155216Y-101181478D01*
X163173964Y-101166336D01*
X163175189Y-101165221D01*
X163183940Y-101159571D01*
X163190387Y-101151393D01*
X163190389Y-101151391D01*
X163204729Y-101133200D01*
X163208678Y-101128756D01*
X163208604Y-101128694D01*
X163211957Y-101124737D01*
X163215638Y-101121056D01*
X163226865Y-101105346D01*
X163230421Y-101100609D01*
X163230882Y-101100025D01*
X163262156Y-101060353D01*
X163265189Y-101051716D01*
X163270513Y-101044266D01*
X163274080Y-101032341D01*
X163282303Y-101004844D01*
X163285202Y-100995151D01*
X163287034Y-100989514D01*
X163301390Y-100948633D01*
X163301390Y-100948632D01*
X163304018Y-100941149D01*
X163304500Y-100935584D01*
X163304500Y-100932876D01*
X163304614Y-100930242D01*
X163304643Y-100930144D01*
X163304807Y-100930151D01*
X163304851Y-100929447D01*
X163306713Y-100923222D01*
X163304597Y-100869365D01*
X163304500Y-100864418D01*
X163304500Y-99953920D01*
X163307049Y-99929973D01*
X163307128Y-99928307D01*
X163309320Y-99918124D01*
X163308096Y-99907782D01*
X163308096Y-99907779D01*
X163305374Y-99884787D01*
X163305023Y-99878846D01*
X163304928Y-99878854D01*
X163304500Y-99873674D01*
X163304500Y-99868476D01*
X163301329Y-99849424D01*
X163300492Y-99843547D01*
X163295693Y-99802997D01*
X163295692Y-99802995D01*
X163294469Y-99792659D01*
X163290508Y-99784410D01*
X163289004Y-99775374D01*
X163284056Y-99766203D01*
X163264652Y-99730240D01*
X163261957Y-99724951D01*
X163243212Y-99685915D01*
X163239780Y-99678768D01*
X163236186Y-99674492D01*
X163234246Y-99672552D01*
X163232493Y-99670641D01*
X163232444Y-99670551D01*
X163232567Y-99670439D01*
X163232095Y-99669904D01*
X163229010Y-99664186D01*
X163216916Y-99653006D01*
X163196623Y-99634248D01*
X163189413Y-99627583D01*
X163185848Y-99624154D01*
X162681478Y-99119784D01*
X162666336Y-99101036D01*
X162665221Y-99099811D01*
X162659571Y-99091060D01*
X162651393Y-99084613D01*
X162651391Y-99084611D01*
X162633200Y-99070271D01*
X162628759Y-99066325D01*
X162628697Y-99066398D01*
X162624733Y-99063039D01*
X162621056Y-99059362D01*
X162605308Y-99048108D01*
X162600638Y-99044602D01*
X162560353Y-99012844D01*
X162551719Y-99009812D01*
X162544266Y-99004486D01*
X162495150Y-98989797D01*
X162489508Y-98987964D01*
X162448633Y-98973610D01*
X162448632Y-98973610D01*
X162441149Y-98970982D01*
X162435584Y-98970500D01*
X162432876Y-98970500D01*
X162430242Y-98970386D01*
X162430144Y-98970357D01*
X162430151Y-98970193D01*
X162429447Y-98970149D01*
X162423222Y-98968287D01*
X162369365Y-98970403D01*
X162364418Y-98970500D01*
X161534384Y-98970500D01*
X161466263Y-98950498D01*
X161445289Y-98933595D01*
X161366405Y-98854711D01*
X161332379Y-98792399D01*
X161329500Y-98765616D01*
X161329500Y-98426941D01*
X161349502Y-98358820D01*
X161403158Y-98312327D01*
X161430921Y-98303362D01*
X161462126Y-98297156D01*
X161462128Y-98297155D01*
X161474301Y-98294734D01*
X161484621Y-98287839D01*
X161484622Y-98287838D01*
X161548168Y-98245377D01*
X161558484Y-98238484D01*
X161614734Y-98154301D01*
X161629500Y-98080067D01*
X161629499Y-97529934D01*
X161622388Y-97494182D01*
X161617156Y-97467874D01*
X161617155Y-97467872D01*
X161614734Y-97455699D01*
X161594839Y-97425925D01*
X161573625Y-97358174D01*
X161592408Y-97289707D01*
X161645224Y-97242263D01*
X161699177Y-97229925D01*
X161733376Y-97229809D01*
X161733377Y-97229809D01*
X161736600Y-97229798D01*
X161762927Y-97227007D01*
X161786049Y-97224557D01*
X161786056Y-97224556D01*
X161789253Y-97224217D01*
X161792400Y-97223554D01*
X161792416Y-97223551D01*
X161818402Y-97218072D01*
X161889183Y-97223590D01*
G37*
%TD.AperFunction*%
%TD*%
%TA.AperFunction,Conductor*%
%TO.N,/NMOS_OUT*%
G36*
X172891013Y-83320903D02*
G01*
X172938319Y-83373844D01*
X172950515Y-83427417D01*
X172989192Y-93000000D01*
X172999843Y-95636106D01*
X172978208Y-95707214D01*
X171311606Y-98170886D01*
X171256870Y-98216102D01*
X171209678Y-98226263D01*
X166047875Y-98326077D01*
X162354032Y-98397505D01*
X162285537Y-98378824D01*
X162238016Y-98326077D01*
X162225597Y-98270946D01*
X162226061Y-98170886D01*
X162249742Y-93055766D01*
X162270060Y-92987738D01*
X162291451Y-92962694D01*
X164750000Y-90750000D01*
X164750000Y-83549094D01*
X164770002Y-83480973D01*
X164823658Y-83434480D01*
X164874079Y-83423109D01*
X170835466Y-83332234D01*
X172822596Y-83301942D01*
X172891013Y-83320903D01*
G37*
%TD.AperFunction*%
%TD*%
%TA.AperFunction,Conductor*%
%TO.N,/NMOS_IN*%
G36*
X146842121Y-83895002D02*
G01*
X146888614Y-83948658D01*
X146900000Y-84001000D01*
X146900000Y-92750000D01*
X152524000Y-92750000D01*
X152592121Y-92770002D01*
X152638614Y-92823658D01*
X152650000Y-92876000D01*
X152650000Y-98944500D01*
X152629998Y-99012621D01*
X152576342Y-99059114D01*
X152524000Y-99070500D01*
X151903920Y-99070500D01*
X151879972Y-99067951D01*
X151878307Y-99067872D01*
X151868124Y-99065680D01*
X151857783Y-99066904D01*
X151834777Y-99069627D01*
X151828846Y-99069977D01*
X151828854Y-99070072D01*
X151823676Y-99070500D01*
X151818476Y-99070500D01*
X151813347Y-99071354D01*
X151813344Y-99071354D01*
X151799435Y-99073669D01*
X151793557Y-99074506D01*
X151752999Y-99079306D01*
X151752998Y-99079306D01*
X151742659Y-99080530D01*
X151734407Y-99084493D01*
X151725374Y-99085996D01*
X151716205Y-99090943D01*
X151716203Y-99090944D01*
X151680268Y-99110334D01*
X151674975Y-99113031D01*
X151635913Y-99131787D01*
X151635907Y-99131791D01*
X151628768Y-99135219D01*
X151624492Y-99138813D01*
X151622553Y-99140752D01*
X151620638Y-99142508D01*
X151620552Y-99142555D01*
X151620439Y-99142433D01*
X151619904Y-99142905D01*
X151614186Y-99145990D01*
X151607118Y-99153636D01*
X151607117Y-99153637D01*
X151577595Y-99185574D01*
X151574165Y-99189140D01*
X151525210Y-99238095D01*
X151462898Y-99272121D01*
X151436115Y-99275000D01*
X150500000Y-99275000D01*
X150500000Y-100374000D01*
X150479998Y-100442121D01*
X150426342Y-100488614D01*
X150374000Y-100500000D01*
X146812742Y-100500000D01*
X146752579Y-100481147D01*
X146751275Y-100483611D01*
X146617988Y-100413039D01*
X146617989Y-100413039D01*
X146611274Y-100409484D01*
X146457633Y-100370892D01*
X146450034Y-100370852D01*
X146450033Y-100370852D01*
X146384181Y-100370507D01*
X146299221Y-100370062D01*
X146291841Y-100371834D01*
X146291839Y-100371834D01*
X146152563Y-100405271D01*
X146152560Y-100405272D01*
X146145184Y-100407043D01*
X146004414Y-100479700D01*
X146004274Y-100479428D01*
X145937404Y-100500000D01*
X145709422Y-100500000D01*
X145641301Y-100479998D01*
X145592891Y-100421922D01*
X145120044Y-99272121D01*
X143252506Y-94730907D01*
X139795051Y-94753653D01*
X139580183Y-94755067D01*
X139511932Y-94735514D01*
X139465087Y-94682165D01*
X139453357Y-94628231D01*
X139506955Y-86583480D01*
X139524166Y-84000161D01*
X139544621Y-83932175D01*
X139598585Y-83886040D01*
X139650163Y-83875000D01*
X146774000Y-83875000D01*
X146842121Y-83895002D01*
G37*
%TD.AperFunction*%
%TD*%
M02*
