%TF.GenerationSoftware,KiCad,Pcbnew,(6.0.6)*%
%TF.CreationDate,2022-10-10T16:19:53+08:00*%
%TF.ProjectId,NMOS_SWITCH,4e4d4f53-5f53-4574-9954-43482e6b6963,rev?*%
%TF.SameCoordinates,Original*%
%TF.FileFunction,Paste,Top*%
%TF.FilePolarity,Positive*%
%FSLAX46Y46*%
G04 Gerber Fmt 4.6, Leading zero omitted, Abs format (unit mm)*
G04 Created by KiCad (PCBNEW (6.0.6)) date 2022-10-10 16:19:53*
%MOMM*%
%LPD*%
G01*
G04 APERTURE LIST*
G04 Aperture macros list*
%AMRoundRect*
0 Rectangle with rounded corners*
0 $1 Rounding radius*
0 $2 $3 $4 $5 $6 $7 $8 $9 X,Y pos of 4 corners*
0 Add a 4 corners polygon primitive as box body*
4,1,4,$2,$3,$4,$5,$6,$7,$8,$9,$2,$3,0*
0 Add four circle primitives for the rounded corners*
1,1,$1+$1,$2,$3*
1,1,$1+$1,$4,$5*
1,1,$1+$1,$6,$7*
1,1,$1+$1,$8,$9*
0 Add four rect primitives between the rounded corners*
20,1,$1+$1,$2,$3,$4,$5,0*
20,1,$1+$1,$4,$5,$6,$7,0*
20,1,$1+$1,$6,$7,$8,$9,0*
20,1,$1+$1,$8,$9,$2,$3,0*%
G04 Aperture macros list end*
%ADD10RoundRect,0.135000X-0.135000X-0.185000X0.135000X-0.185000X0.135000X0.185000X-0.135000X0.185000X0*%
%ADD11RoundRect,0.135000X0.135000X0.185000X-0.135000X0.185000X-0.135000X-0.185000X0.135000X-0.185000X0*%
%ADD12R,1.500000X1.500000*%
%ADD13R,0.750000X0.500000*%
%ADD14R,0.750000X0.400000*%
%ADD15R,3.050000X2.750000*%
%ADD16R,2.200000X0.800000*%
%ADD17RoundRect,0.250000X0.475000X-0.250000X0.475000X0.250000X-0.475000X0.250000X-0.475000X-0.250000X0*%
%ADD18RoundRect,0.135000X0.185000X-0.135000X0.185000X0.135000X-0.185000X0.135000X-0.185000X-0.135000X0*%
%ADD19RoundRect,0.218750X0.218750X0.256250X-0.218750X0.256250X-0.218750X-0.256250X0.218750X-0.256250X0*%
%ADD20RoundRect,0.135000X-0.185000X0.135000X-0.185000X-0.135000X0.185000X-0.135000X0.185000X0.135000X0*%
%ADD21R,1.100000X1.100000*%
%ADD22RoundRect,0.150000X-0.587500X-0.150000X0.587500X-0.150000X0.587500X0.150000X-0.587500X0.150000X0*%
%ADD23RoundRect,0.150000X0.512500X0.150000X-0.512500X0.150000X-0.512500X-0.150000X0.512500X-0.150000X0*%
%ADD24RoundRect,0.150000X0.150000X-0.512500X0.150000X0.512500X-0.150000X0.512500X-0.150000X-0.512500X0*%
%ADD25RoundRect,0.140000X0.170000X-0.140000X0.170000X0.140000X-0.170000X0.140000X-0.170000X-0.140000X0*%
G04 APERTURE END LIST*
D10*
%TO.C,R10*%
X146690000Y-104000000D03*
X147710000Y-104000000D03*
%TD*%
%TO.C,R11*%
X146590000Y-105275000D03*
X147610000Y-105275000D03*
%TD*%
D11*
%TO.C,R8*%
X162960000Y-103825000D03*
X161940000Y-103825000D03*
%TD*%
D12*
%TO.C,Q2*%
X165350000Y-96750000D03*
D13*
X166755000Y-95265000D03*
X166755000Y-96535000D03*
D12*
X163650000Y-96750000D03*
D13*
X166755000Y-93995000D03*
D12*
X165350000Y-95050000D03*
D13*
X166755000Y-97805000D03*
D12*
X163650000Y-95050000D03*
D14*
X160950000Y-93995000D03*
X160950000Y-95265000D03*
X160950000Y-96535000D03*
X160950000Y-97805000D03*
%TD*%
D15*
%TO.C,U1*%
X147575000Y-97575000D03*
X150925000Y-94525000D03*
X147575000Y-94525000D03*
X150925000Y-97575000D03*
D16*
X155550000Y-98330000D03*
X155550000Y-97190000D03*
X155550000Y-94910000D03*
X155550000Y-93770000D03*
%TD*%
D17*
%TO.C,C1*%
X153975000Y-104750000D03*
X153975000Y-102850000D03*
%TD*%
D18*
%TO.C,R1*%
X146050000Y-101110000D03*
X146050000Y-100090000D03*
%TD*%
D19*
%TO.C,D3*%
X166037500Y-106325000D03*
X164462500Y-106325000D03*
%TD*%
D20*
%TO.C,R2*%
X147750000Y-100015000D03*
X147750000Y-101035000D03*
%TD*%
D18*
%TO.C,R4*%
X154375000Y-101135000D03*
X154375000Y-100115000D03*
%TD*%
D21*
%TO.C,D2*%
X157725000Y-102900000D03*
X157725000Y-105700000D03*
%TD*%
D20*
%TO.C,R6*%
X157700000Y-100215000D03*
X157700000Y-101235000D03*
%TD*%
D22*
%TO.C,Q1*%
X149387500Y-104650000D03*
X149387500Y-106550000D03*
X151262500Y-105600000D03*
%TD*%
D23*
%TO.C,U2*%
X164137500Y-102150000D03*
X164137500Y-101200000D03*
X164137500Y-100250000D03*
X161862500Y-100250000D03*
X161862500Y-101200000D03*
X161862500Y-102150000D03*
%TD*%
D24*
%TO.C,U3*%
X149450000Y-102837500D03*
X150400000Y-102837500D03*
X151350000Y-102837500D03*
X151350000Y-100562500D03*
X149450000Y-100562500D03*
%TD*%
D18*
%TO.C,R5*%
X158850000Y-101260000D03*
X158850000Y-100240000D03*
%TD*%
D10*
%TO.C,R7*%
X161915000Y-106275000D03*
X162935000Y-106275000D03*
%TD*%
D25*
%TO.C,C2*%
X165675000Y-100905000D03*
X165675000Y-99945000D03*
%TD*%
D11*
%TO.C,R9*%
X147710000Y-102650000D03*
X146690000Y-102650000D03*
%TD*%
M02*
