%TF.GenerationSoftware,KiCad,Pcbnew,(6.0.6)*%
%TF.CreationDate,2022-10-10T16:19:53+08:00*%
%TF.ProjectId,NMOS_SWITCH,4e4d4f53-5f53-4574-9954-43482e6b6963,rev?*%
%TF.SameCoordinates,Original*%
%TF.FileFunction,Copper,L2,Bot*%
%TF.FilePolarity,Positive*%
%FSLAX46Y46*%
G04 Gerber Fmt 4.6, Leading zero omitted, Abs format (unit mm)*
G04 Created by KiCad (PCBNEW (6.0.6)) date 2022-10-10 16:19:53*
%MOMM*%
%LPD*%
G01*
G04 APERTURE LIST*
G04 Aperture macros list*
%AMRoundRect*
0 Rectangle with rounded corners*
0 $1 Rounding radius*
0 $2 $3 $4 $5 $6 $7 $8 $9 X,Y pos of 4 corners*
0 Add a 4 corners polygon primitive as box body*
4,1,4,$2,$3,$4,$5,$6,$7,$8,$9,$2,$3,0*
0 Add four circle primitives for the rounded corners*
1,1,$1+$1,$2,$3*
1,1,$1+$1,$4,$5*
1,1,$1+$1,$6,$7*
1,1,$1+$1,$8,$9*
0 Add four rect primitives between the rounded corners*
20,1,$1+$1,$2,$3,$4,$5,0*
20,1,$1+$1,$4,$5,$6,$7,0*
20,1,$1+$1,$6,$7,$8,$9,0*
20,1,$1+$1,$8,$9,$2,$3,0*%
G04 Aperture macros list end*
%TA.AperFunction,ComponentPad*%
%ADD10R,3.000000X3.000000*%
%TD*%
%TA.AperFunction,ComponentPad*%
%ADD11C,3.000000*%
%TD*%
%TA.AperFunction,ComponentPad*%
%ADD12RoundRect,1.500000X1.500000X1.500000X-1.500000X1.500000X-1.500000X-1.500000X1.500000X-1.500000X0*%
%TD*%
%TA.AperFunction,ComponentPad*%
%ADD13C,6.000000*%
%TD*%
%TA.AperFunction,ComponentPad*%
%ADD14RoundRect,1.500000X-1.500000X-1.500000X1.500000X-1.500000X1.500000X1.500000X-1.500000X1.500000X0*%
%TD*%
%TA.AperFunction,ViaPad*%
%ADD15C,0.800000*%
%TD*%
%TA.AperFunction,Conductor*%
%ADD16C,0.250000*%
%TD*%
G04 APERTURE END LIST*
D10*
%TO.P,J1,1,Pin_1*%
%TO.N,GND*%
X142325000Y-103300000D03*
D11*
%TO.P,J1,2,Pin_2*%
%TO.N,/EN*%
X142325000Y-98300000D03*
%TD*%
D12*
%TO.P,J2,1,Pin_1*%
%TO.N,GND*%
X151025000Y-87550000D03*
D13*
%TO.P,J2,2,Pin_2*%
%TO.N,/NMOS_IN*%
X143825000Y-87550000D03*
%TD*%
D14*
%TO.P,J3,1,Pin_1*%
%TO.N,GND*%
X161025000Y-87400000D03*
D13*
%TO.P,J3,2,Pin_2*%
%TO.N,/NMOS_OUT*%
X168225000Y-87400000D03*
%TD*%
D15*
%TO.N,GND*%
X164000000Y-99275000D03*
X150400000Y-103625000D03*
X146300000Y-102450000D03*
X165625000Y-104925000D03*
%TO.N,Net-(U3-Pad1)*%
X149275000Y-102650000D03*
X146375000Y-101025000D03*
X154000000Y-104775000D03*
%TO.N,/NMOS_IN*%
X140450000Y-91275000D03*
%TO.N,Net-(R5-Pad2)*%
X156400000Y-100050000D03*
X153775000Y-94925000D03*
%TO.N,Net-(Q2-Pad1)*%
X159475000Y-98550000D03*
%TD*%
D16*
%TO.N,Net-(U3-Pad1)*%
X151875000Y-102650000D02*
X154000000Y-104775000D01*
X147025000Y-101025000D02*
X148650000Y-102650000D01*
X146375000Y-101025000D02*
X147025000Y-101025000D01*
X148650000Y-102650000D02*
X149275000Y-102650000D01*
X149275000Y-102650000D02*
X151875000Y-102650000D01*
%TO.N,Net-(R5-Pad2)*%
X156400000Y-100050000D02*
X154725000Y-98375000D01*
X153000000Y-97925000D02*
X153000000Y-95500000D01*
X153450000Y-98375000D02*
X153000000Y-97925000D01*
X154100000Y-98375000D02*
X153450000Y-98375000D01*
X153550000Y-94950000D02*
X153575000Y-94925000D01*
X154725000Y-98375000D02*
X154100000Y-98375000D01*
X153575000Y-94925000D02*
X153775000Y-94925000D01*
X153000000Y-95500000D02*
X153550000Y-94950000D01*
%TD*%
%TA.AperFunction,Conductor*%
%TO.N,Net-(Q2-Pad1)*%
G36*
X161874268Y-92364919D02*
G01*
X161920794Y-92418546D01*
X161932195Y-92473001D01*
X161861276Y-96846343D01*
X161840172Y-96914130D01*
X161785770Y-96959747D01*
X161735720Y-96970299D01*
X161422509Y-96971362D01*
X160350000Y-96975000D01*
X160350000Y-99125377D01*
X160329998Y-99193498D01*
X160276342Y-99239991D01*
X160225385Y-99251369D01*
X158680910Y-99268342D01*
X156235490Y-99295214D01*
X156167155Y-99275963D01*
X156145012Y-99258318D01*
X155031478Y-98144784D01*
X155016336Y-98126036D01*
X155015221Y-98124811D01*
X155009571Y-98116060D01*
X155001393Y-98109613D01*
X155001391Y-98109611D01*
X154983200Y-98095271D01*
X154978759Y-98091325D01*
X154978697Y-98091398D01*
X154974733Y-98088039D01*
X154971056Y-98084362D01*
X154955308Y-98073108D01*
X154950638Y-98069602D01*
X154910353Y-98037844D01*
X154901719Y-98034812D01*
X154894266Y-98029486D01*
X154845150Y-98014797D01*
X154839508Y-98012964D01*
X154798633Y-97998610D01*
X154798632Y-97998610D01*
X154791149Y-97995982D01*
X154785584Y-97995500D01*
X154782876Y-97995500D01*
X154780242Y-97995386D01*
X154780144Y-97995357D01*
X154780151Y-97995193D01*
X154779447Y-97995149D01*
X154773222Y-97993287D01*
X154719365Y-97995403D01*
X154714418Y-97995500D01*
X153659384Y-97995500D01*
X153591263Y-97975498D01*
X153570289Y-97958595D01*
X153561905Y-97950211D01*
X153527879Y-97887899D01*
X153525000Y-97861116D01*
X153525000Y-95699415D01*
X153545002Y-95631294D01*
X153598658Y-95584801D01*
X153668932Y-95574697D01*
X153673771Y-95575676D01*
X153678171Y-95576279D01*
X153685522Y-95578207D01*
X153769477Y-95579526D01*
X153836319Y-95580576D01*
X153836322Y-95580576D01*
X153843916Y-95580695D01*
X153998332Y-95545329D01*
X154068742Y-95509917D01*
X154133072Y-95477563D01*
X154133075Y-95477561D01*
X154139855Y-95474151D01*
X154145626Y-95469222D01*
X154145629Y-95469220D01*
X154254536Y-95376204D01*
X154254536Y-95376203D01*
X154260314Y-95371269D01*
X154352755Y-95242624D01*
X154411842Y-95095641D01*
X154434162Y-94938807D01*
X154434307Y-94925000D01*
X154415276Y-94767733D01*
X154359280Y-94619546D01*
X154269553Y-94488992D01*
X154151275Y-94383611D01*
X154143889Y-94379700D01*
X154017988Y-94313039D01*
X154017989Y-94313039D01*
X154011274Y-94309484D01*
X153857633Y-94270892D01*
X153850034Y-94270852D01*
X153850033Y-94270852D01*
X153784181Y-94270507D01*
X153699221Y-94270062D01*
X153688054Y-94272743D01*
X153680413Y-94274577D01*
X153609505Y-94271029D01*
X153551772Y-94229709D01*
X153525542Y-94163735D01*
X153525000Y-94152058D01*
X153525000Y-92475923D01*
X153545002Y-92407802D01*
X153598658Y-92361309D01*
X153650921Y-92349923D01*
X161806135Y-92344958D01*
X161874268Y-92364919D01*
G37*
%TD.AperFunction*%
%TD*%
%TA.AperFunction,Conductor*%
%TO.N,/NMOS_OUT*%
G36*
X172891013Y-83320903D02*
G01*
X172938319Y-83373844D01*
X172950515Y-83427417D01*
X172989192Y-93000000D01*
X172999843Y-95636106D01*
X172978208Y-95707214D01*
X171311606Y-98170886D01*
X171256870Y-98216102D01*
X171209678Y-98226263D01*
X166047875Y-98326077D01*
X162354032Y-98397505D01*
X162285537Y-98378824D01*
X162238016Y-98326077D01*
X162225597Y-98270946D01*
X162226061Y-98170886D01*
X162249742Y-93055766D01*
X162270060Y-92987738D01*
X162291451Y-92962694D01*
X164750000Y-90750000D01*
X164750000Y-83549094D01*
X164770002Y-83480973D01*
X164823658Y-83434480D01*
X164874079Y-83423109D01*
X170835466Y-83332234D01*
X172822596Y-83301942D01*
X172891013Y-83320903D01*
G37*
%TD.AperFunction*%
%TD*%
%TA.AperFunction,Conductor*%
%TO.N,/NMOS_IN*%
G36*
X146842121Y-83895002D02*
G01*
X146888614Y-83948658D01*
X146900000Y-84001000D01*
X146900000Y-92750000D01*
X152524000Y-92750000D01*
X152592121Y-92770002D01*
X152638614Y-92823658D01*
X152650000Y-92876000D01*
X152650000Y-95327297D01*
X152644718Y-95363395D01*
X152639793Y-95379864D01*
X152637964Y-95385492D01*
X152620982Y-95433851D01*
X152620500Y-95439416D01*
X152620500Y-95442124D01*
X152620386Y-95444758D01*
X152620357Y-95444856D01*
X152620193Y-95444849D01*
X152620149Y-95445553D01*
X152618287Y-95451778D01*
X152618696Y-95462183D01*
X152620403Y-95505635D01*
X152620500Y-95510582D01*
X152620500Y-97871080D01*
X152617951Y-97895028D01*
X152617872Y-97896693D01*
X152615680Y-97906876D01*
X152616904Y-97917217D01*
X152619627Y-97940223D01*
X152619977Y-97946154D01*
X152620072Y-97946146D01*
X152620500Y-97951324D01*
X152620500Y-97956524D01*
X152621354Y-97961653D01*
X152621354Y-97961656D01*
X152623669Y-97975565D01*
X152624506Y-97981443D01*
X152630530Y-98032341D01*
X152634493Y-98040593D01*
X152635996Y-98049626D01*
X152640944Y-98058796D01*
X152643209Y-98065413D01*
X152650000Y-98106221D01*
X152650000Y-99149000D01*
X152629998Y-99217121D01*
X152576342Y-99263614D01*
X152524000Y-99275000D01*
X150500000Y-99275000D01*
X150500000Y-100374000D01*
X150479998Y-100442121D01*
X150426342Y-100488614D01*
X150374000Y-100500000D01*
X146812742Y-100500000D01*
X146752579Y-100481147D01*
X146751275Y-100483611D01*
X146617988Y-100413039D01*
X146617989Y-100413039D01*
X146611274Y-100409484D01*
X146457633Y-100370892D01*
X146450034Y-100370852D01*
X146450033Y-100370852D01*
X146384181Y-100370507D01*
X146299221Y-100370062D01*
X146291841Y-100371834D01*
X146291839Y-100371834D01*
X146152563Y-100405271D01*
X146152560Y-100405272D01*
X146145184Y-100407043D01*
X146004414Y-100479700D01*
X146004274Y-100479428D01*
X145937404Y-100500000D01*
X145709422Y-100500000D01*
X145641301Y-100479998D01*
X145592891Y-100421922D01*
X143573141Y-95510582D01*
X143252506Y-94730907D01*
X139795051Y-94753653D01*
X139580183Y-94755067D01*
X139511932Y-94735514D01*
X139465087Y-94682165D01*
X139453357Y-94628231D01*
X139506955Y-86583480D01*
X139524166Y-84000161D01*
X139544621Y-83932175D01*
X139598585Y-83886040D01*
X139650163Y-83875000D01*
X146774000Y-83875000D01*
X146842121Y-83895002D01*
G37*
%TD.AperFunction*%
%TD*%
%TA.AperFunction,Conductor*%
%TO.N,GND*%
G36*
X173287166Y-82699502D02*
G01*
X173333659Y-82753158D01*
X173345045Y-82805650D01*
X173344729Y-83070829D01*
X173344683Y-83109193D01*
X173324600Y-83177290D01*
X173270889Y-83223719D01*
X173200603Y-83233739D01*
X173136057Y-83204169D01*
X173124728Y-83192998D01*
X173086390Y-83150093D01*
X173086388Y-83150091D01*
X173084516Y-83147996D01*
X173050742Y-83116387D01*
X173036464Y-83109193D01*
X172965844Y-83073613D01*
X172965843Y-83073613D01*
X172960318Y-83070829D01*
X172954355Y-83069177D01*
X172954354Y-83069176D01*
X172926567Y-83061475D01*
X172891901Y-83051868D01*
X172884459Y-83050914D01*
X172823104Y-83043044D01*
X172823098Y-83043044D01*
X172818641Y-83042472D01*
X167427857Y-83124649D01*
X164873391Y-83163589D01*
X164873387Y-83163589D01*
X164870124Y-83163639D01*
X164848743Y-83166185D01*
X164820211Y-83169583D01*
X164820204Y-83169584D01*
X164816990Y-83169967D01*
X164766569Y-83181338D01*
X164765102Y-83181747D01*
X164765088Y-83181750D01*
X164755122Y-83184525D01*
X164741709Y-83188260D01*
X164653722Y-83238363D01*
X164600066Y-83284856D01*
X164567944Y-83318145D01*
X164521013Y-83407864D01*
X164501011Y-83475985D01*
X164490500Y-83549094D01*
X164490500Y-90578313D01*
X164470498Y-90646434D01*
X164448790Y-90671968D01*
X162415110Y-92502280D01*
X162397494Y-92518134D01*
X162333479Y-92548837D01*
X162263027Y-92540057D01*
X162208507Y-92494582D01*
X162187773Y-92436442D01*
X162186521Y-92423314D01*
X162186521Y-92423311D01*
X162186188Y-92419824D01*
X162174787Y-92365369D01*
X162166964Y-92336444D01*
X162162841Y-92329213D01*
X162119875Y-92253871D01*
X162116806Y-92248489D01*
X162086628Y-92213705D01*
X162072120Y-92196982D01*
X162072112Y-92196973D01*
X162070280Y-92194862D01*
X162043699Y-92169244D01*
X162043465Y-92169018D01*
X162043462Y-92169016D01*
X162036974Y-92162763D01*
X161947227Y-92115886D01*
X161941288Y-92114146D01*
X161883409Y-92097189D01*
X161883407Y-92097189D01*
X161879094Y-92095925D01*
X161805977Y-92085458D01*
X153650763Y-92090423D01*
X153647411Y-92090785D01*
X153647409Y-92090785D01*
X153599041Y-92096007D01*
X153599035Y-92096008D01*
X153595682Y-92096370D01*
X153543419Y-92107756D01*
X153541788Y-92108204D01*
X153541779Y-92108206D01*
X153524306Y-92113003D01*
X153524304Y-92113004D01*
X153516709Y-92115089D01*
X153428722Y-92165192D01*
X153375066Y-92211685D01*
X153342944Y-92244974D01*
X153296013Y-92334693D01*
X153276011Y-92402814D01*
X153275371Y-92407262D01*
X153275370Y-92407269D01*
X153266139Y-92471475D01*
X153265500Y-92475923D01*
X153265500Y-94152058D01*
X153265779Y-94164090D01*
X153266321Y-94175767D01*
X153284402Y-94259608D01*
X153310632Y-94325582D01*
X153311899Y-94328090D01*
X153311904Y-94328102D01*
X153314191Y-94332630D01*
X153327046Y-94402454D01*
X153300111Y-94468142D01*
X153295356Y-94473744D01*
X153290764Y-94478844D01*
X153285039Y-94483838D01*
X153193950Y-94613444D01*
X153188859Y-94626502D01*
X153152893Y-94718750D01*
X153109512Y-94774951D01*
X153042633Y-94798778D01*
X152973490Y-94782665D01*
X152924034Y-94731727D01*
X152909500Y-94672980D01*
X152909500Y-92876000D01*
X152903570Y-92820841D01*
X152892184Y-92768499D01*
X152884834Y-92741709D01*
X152864918Y-92706733D01*
X152837794Y-92659101D01*
X152834731Y-92653722D01*
X152788238Y-92600066D01*
X152754949Y-92567944D01*
X152665230Y-92521013D01*
X152655425Y-92518134D01*
X152601432Y-92502280D01*
X152601428Y-92502279D01*
X152597109Y-92501011D01*
X152592661Y-92500371D01*
X152592654Y-92500370D01*
X152528448Y-92491139D01*
X152528441Y-92491139D01*
X152524000Y-92490500D01*
X147285500Y-92490500D01*
X147217379Y-92470498D01*
X147170886Y-92416842D01*
X147159500Y-92364500D01*
X147159500Y-84001000D01*
X147153570Y-83945841D01*
X147142184Y-83893499D01*
X147134834Y-83866709D01*
X147084731Y-83778722D01*
X147038238Y-83725066D01*
X147004949Y-83692944D01*
X146915230Y-83646013D01*
X146905343Y-83643110D01*
X146851432Y-83627280D01*
X146851428Y-83627279D01*
X146847109Y-83626011D01*
X146842661Y-83625371D01*
X146842654Y-83625370D01*
X146778448Y-83616139D01*
X146778441Y-83616139D01*
X146774000Y-83615500D01*
X139650163Y-83615500D01*
X139646860Y-83615850D01*
X139646852Y-83615850D01*
X139599164Y-83620897D01*
X139599161Y-83620898D01*
X139595849Y-83621248D01*
X139592598Y-83621944D01*
X139592591Y-83621945D01*
X139545896Y-83631940D01*
X139545889Y-83631942D01*
X139544271Y-83632288D01*
X139542693Y-83632712D01*
X139542674Y-83632717D01*
X139525836Y-83637246D01*
X139525833Y-83637247D01*
X139518275Y-83639280D01*
X139511446Y-83643109D01*
X139511443Y-83643110D01*
X139435357Y-83685769D01*
X139435354Y-83685771D01*
X139429957Y-83688797D01*
X139375993Y-83734932D01*
X139343652Y-83768005D01*
X139296125Y-83857410D01*
X139294341Y-83863340D01*
X139294340Y-83863342D01*
X139285756Y-83891873D01*
X139275670Y-83925396D01*
X139274999Y-83929851D01*
X139274998Y-83929856D01*
X139265342Y-83993982D01*
X139264672Y-83998432D01*
X139264642Y-84002932D01*
X139195313Y-94408923D01*
X139193863Y-94626502D01*
X139199785Y-94683380D01*
X139211515Y-94737314D01*
X139219411Y-94765733D01*
X139270092Y-94853387D01*
X139316937Y-94906736D01*
X139318956Y-94908659D01*
X139318963Y-94908666D01*
X139338084Y-94926874D01*
X139350438Y-94938639D01*
X139440464Y-94984979D01*
X139446419Y-94986685D01*
X139504382Y-95003291D01*
X139504387Y-95003292D01*
X139508715Y-95004532D01*
X139513174Y-95005143D01*
X139513178Y-95005144D01*
X139568914Y-95012783D01*
X139581890Y-95014561D01*
X142994087Y-94992112D01*
X143062337Y-95011665D01*
X143111445Y-95070186D01*
X143949543Y-97108153D01*
X143966045Y-97148279D01*
X143973455Y-97218887D01*
X143941514Y-97282294D01*
X143880365Y-97318366D01*
X143809420Y-97315652D01*
X143750564Y-97274207D01*
X143711155Y-97224217D01*
X143622180Y-97111353D01*
X143432239Y-96932674D01*
X143217973Y-96784032D01*
X143213783Y-96781966D01*
X143213780Y-96781964D01*
X142988278Y-96670759D01*
X142988275Y-96670758D01*
X142984090Y-96668694D01*
X142735728Y-96589193D01*
X142731121Y-96588443D01*
X142731118Y-96588442D01*
X142482955Y-96548026D01*
X142482956Y-96548026D01*
X142478344Y-96547275D01*
X142351875Y-96545620D01*
X142222267Y-96543923D01*
X142222264Y-96543923D01*
X142217590Y-96543862D01*
X141959196Y-96579028D01*
X141954710Y-96580336D01*
X141954708Y-96580336D01*
X141924321Y-96589193D01*
X141708838Y-96652000D01*
X141472016Y-96761177D01*
X141468111Y-96763737D01*
X141468106Y-96763740D01*
X141257846Y-96901592D01*
X141257841Y-96901596D01*
X141253933Y-96904158D01*
X141059379Y-97077804D01*
X140892629Y-97278300D01*
X140757345Y-97501240D01*
X140656500Y-97741728D01*
X140592310Y-97994480D01*
X140566183Y-98253944D01*
X140566407Y-98258611D01*
X140566407Y-98258616D01*
X140566942Y-98269745D01*
X140578694Y-98514419D01*
X140629569Y-98770185D01*
X140717690Y-99015621D01*
X140719906Y-99019745D01*
X140830963Y-99226432D01*
X140841120Y-99245336D01*
X140843915Y-99249079D01*
X140843917Y-99249082D01*
X140994357Y-99450545D01*
X140994362Y-99450551D01*
X140997149Y-99454283D01*
X141000458Y-99457563D01*
X141000463Y-99457569D01*
X141179031Y-99634585D01*
X141182348Y-99637873D01*
X141186110Y-99640631D01*
X141186113Y-99640634D01*
X141337518Y-99751649D01*
X141392649Y-99792073D01*
X141396780Y-99794247D01*
X141396781Y-99794247D01*
X141619298Y-99911319D01*
X141619304Y-99911321D01*
X141623433Y-99913494D01*
X141869629Y-99999469D01*
X141874222Y-100000341D01*
X142121239Y-100047239D01*
X142121242Y-100047239D01*
X142125828Y-100048110D01*
X142249725Y-100052978D01*
X142381735Y-100058165D01*
X142381740Y-100058165D01*
X142386403Y-100058348D01*
X142479885Y-100048110D01*
X142640976Y-100030468D01*
X142640981Y-100030467D01*
X142645629Y-100029958D01*
X142897811Y-99963564D01*
X143062676Y-99892733D01*
X143133107Y-99862474D01*
X143133110Y-99862472D01*
X143137410Y-99860625D01*
X143141390Y-99858162D01*
X143141394Y-99858160D01*
X143355188Y-99725860D01*
X143355192Y-99725857D01*
X143359161Y-99723401D01*
X143558194Y-99554907D01*
X143730135Y-99358845D01*
X143744920Y-99335860D01*
X143868680Y-99143453D01*
X143871208Y-99139523D01*
X143978314Y-98901757D01*
X144049099Y-98650772D01*
X144061355Y-98554432D01*
X144081611Y-98395212D01*
X144081611Y-98395206D01*
X144082009Y-98392081D01*
X144084420Y-98300000D01*
X144065094Y-98039941D01*
X144065323Y-98039924D01*
X144074755Y-97971617D01*
X144120947Y-97917702D01*
X144188955Y-97897320D01*
X144257186Y-97916941D01*
X144306190Y-97975396D01*
X145320831Y-100442654D01*
X145352893Y-100520619D01*
X145355372Y-100524732D01*
X145355375Y-100524737D01*
X145384450Y-100572965D01*
X145393560Y-100588077D01*
X145396635Y-100591766D01*
X145433689Y-100636218D01*
X145441970Y-100646153D01*
X145478473Y-100682056D01*
X145486723Y-100686371D01*
X145486725Y-100686373D01*
X145489442Y-100687794D01*
X145568192Y-100728987D01*
X145635557Y-100748767D01*
X145636313Y-100748989D01*
X145636265Y-100749153D01*
X145697044Y-100782340D01*
X145731070Y-100844652D01*
X145732872Y-100887881D01*
X145715729Y-101018096D01*
X145733113Y-101175553D01*
X145787553Y-101324319D01*
X145875908Y-101455805D01*
X145881527Y-101460918D01*
X145881528Y-101460919D01*
X145945820Y-101519420D01*
X145993076Y-101562419D01*
X146132293Y-101638008D01*
X146285522Y-101678207D01*
X146369477Y-101679526D01*
X146436319Y-101680576D01*
X146436322Y-101680576D01*
X146443916Y-101680695D01*
X146598332Y-101645329D01*
X146668742Y-101609917D01*
X146733072Y-101577563D01*
X146733075Y-101577561D01*
X146739855Y-101574151D01*
X146745626Y-101569222D01*
X146745629Y-101569220D01*
X146811800Y-101512704D01*
X146876590Y-101483673D01*
X146946790Y-101494278D01*
X146982726Y-101519420D01*
X148343522Y-102880216D01*
X148358664Y-102898964D01*
X148359779Y-102900189D01*
X148365429Y-102908940D01*
X148373607Y-102915387D01*
X148373609Y-102915389D01*
X148391800Y-102929729D01*
X148396241Y-102933675D01*
X148396303Y-102933602D01*
X148400267Y-102936961D01*
X148403944Y-102940638D01*
X148419692Y-102951892D01*
X148424362Y-102955398D01*
X148464647Y-102987156D01*
X148473281Y-102990188D01*
X148480734Y-102995514D01*
X148529850Y-103010203D01*
X148535492Y-103012036D01*
X148576367Y-103026390D01*
X148583851Y-103029018D01*
X148589416Y-103029500D01*
X148592124Y-103029500D01*
X148594758Y-103029614D01*
X148594856Y-103029643D01*
X148594849Y-103029807D01*
X148595553Y-103029851D01*
X148601778Y-103031713D01*
X148655635Y-103029597D01*
X148660582Y-103029500D01*
X148675141Y-103029500D01*
X148743262Y-103049502D01*
X148770522Y-103073169D01*
X148771672Y-103074501D01*
X148775908Y-103080805D01*
X148893076Y-103187419D01*
X149032293Y-103263008D01*
X149185522Y-103303207D01*
X149269477Y-103304526D01*
X149336319Y-103305576D01*
X149336322Y-103305576D01*
X149343916Y-103305695D01*
X149498332Y-103270329D01*
X149599491Y-103219452D01*
X149633072Y-103202563D01*
X149633075Y-103202561D01*
X149639855Y-103199151D01*
X149645626Y-103194222D01*
X149645629Y-103194220D01*
X149754542Y-103101199D01*
X149754543Y-103101198D01*
X149760314Y-103096269D01*
X149770586Y-103081974D01*
X149826581Y-103038326D01*
X149872909Y-103029500D01*
X151665616Y-103029500D01*
X151733737Y-103049502D01*
X151754711Y-103066405D01*
X153310249Y-104621943D01*
X153344275Y-104684255D01*
X153346076Y-104727482D01*
X153340729Y-104768096D01*
X153347808Y-104832213D01*
X153357241Y-104917654D01*
X153358113Y-104925553D01*
X153360723Y-104932684D01*
X153360723Y-104932686D01*
X153374011Y-104968996D01*
X153412553Y-105074319D01*
X153416789Y-105080622D01*
X153416789Y-105080623D01*
X153488354Y-105187122D01*
X153500908Y-105205805D01*
X153506527Y-105210918D01*
X153506528Y-105210919D01*
X153580300Y-105278046D01*
X153618076Y-105312419D01*
X153757293Y-105388008D01*
X153910522Y-105428207D01*
X153994477Y-105429526D01*
X154061319Y-105430576D01*
X154061322Y-105430576D01*
X154068916Y-105430695D01*
X154223332Y-105395329D01*
X154293742Y-105359917D01*
X154358072Y-105327563D01*
X154358075Y-105327561D01*
X154364855Y-105324151D01*
X154370626Y-105319222D01*
X154370629Y-105319220D01*
X154479536Y-105226204D01*
X154479536Y-105226203D01*
X154485314Y-105221269D01*
X154577755Y-105092624D01*
X154636842Y-104945641D01*
X154659162Y-104788807D01*
X154659307Y-104775000D01*
X154657561Y-104760567D01*
X154641188Y-104625273D01*
X154640276Y-104617733D01*
X154584280Y-104469546D01*
X154494553Y-104338992D01*
X154376275Y-104233611D01*
X154236274Y-104159484D01*
X154082633Y-104120892D01*
X154075034Y-104120852D01*
X154075033Y-104120852D01*
X154013867Y-104120532D01*
X153933336Y-104120110D01*
X153865322Y-104099752D01*
X153844902Y-104083207D01*
X153328881Y-103567186D01*
X167841018Y-103567186D01*
X167866579Y-103835100D01*
X167867664Y-103839534D01*
X167867665Y-103839540D01*
X167880007Y-103889976D01*
X167930547Y-104096518D01*
X168031583Y-104345963D01*
X168167569Y-104578210D01*
X168252375Y-104684255D01*
X168332689Y-104784682D01*
X168335658Y-104788395D01*
X168532327Y-104972113D01*
X168753457Y-105125516D01*
X168994416Y-105245391D01*
X168998750Y-105246812D01*
X168998753Y-105246813D01*
X169245823Y-105327807D01*
X169245829Y-105327808D01*
X169250156Y-105329227D01*
X169254647Y-105330007D01*
X169254648Y-105330007D01*
X169511538Y-105374611D01*
X169511546Y-105374612D01*
X169515319Y-105375267D01*
X169519156Y-105375458D01*
X169598777Y-105379422D01*
X169598785Y-105379422D01*
X169600348Y-105379500D01*
X169768374Y-105379500D01*
X169770642Y-105379335D01*
X169770654Y-105379335D01*
X169901457Y-105369844D01*
X169968425Y-105364985D01*
X169972880Y-105364001D01*
X169972883Y-105364001D01*
X170226770Y-105307947D01*
X170226772Y-105307946D01*
X170231226Y-105306963D01*
X170482900Y-105211613D01*
X170493357Y-105205805D01*
X170714179Y-105083149D01*
X170714180Y-105083148D01*
X170718172Y-105080931D01*
X170880229Y-104957253D01*
X170928491Y-104920421D01*
X170928495Y-104920417D01*
X170932116Y-104917654D01*
X171120249Y-104725203D01*
X171198474Y-104617733D01*
X171275942Y-104511304D01*
X171275947Y-104511297D01*
X171278630Y-104507610D01*
X171403941Y-104269433D01*
X171493557Y-104015662D01*
X171519431Y-103884389D01*
X171544720Y-103756083D01*
X171544721Y-103756077D01*
X171545601Y-103751611D01*
X171554782Y-103567186D01*
X171558755Y-103487383D01*
X171558755Y-103487377D01*
X171558982Y-103482814D01*
X171533421Y-103214900D01*
X171530403Y-103202563D01*
X171470539Y-102957920D01*
X171469453Y-102953482D01*
X171368417Y-102704037D01*
X171232431Y-102471790D01*
X171064342Y-102261605D01*
X170867673Y-102077887D01*
X170646543Y-101924484D01*
X170405584Y-101804609D01*
X170401250Y-101803188D01*
X170401247Y-101803187D01*
X170154177Y-101722193D01*
X170154171Y-101722192D01*
X170149844Y-101720773D01*
X170145352Y-101719993D01*
X169888462Y-101675389D01*
X169888454Y-101675388D01*
X169884681Y-101674733D01*
X169874718Y-101674237D01*
X169801223Y-101670578D01*
X169801215Y-101670578D01*
X169799652Y-101670500D01*
X169631626Y-101670500D01*
X169629358Y-101670665D01*
X169629346Y-101670665D01*
X169498543Y-101680156D01*
X169431575Y-101685015D01*
X169427120Y-101685999D01*
X169427117Y-101685999D01*
X169173230Y-101742053D01*
X169173228Y-101742054D01*
X169168774Y-101743037D01*
X168917100Y-101838387D01*
X168681828Y-101969069D01*
X168645447Y-101996834D01*
X168471509Y-102129579D01*
X168471505Y-102129583D01*
X168467884Y-102132346D01*
X168279751Y-102324797D01*
X168277066Y-102328486D01*
X168124058Y-102538696D01*
X168124053Y-102538703D01*
X168121370Y-102542390D01*
X167996059Y-102780567D01*
X167934310Y-102955426D01*
X167908177Y-103029429D01*
X167906443Y-103034338D01*
X167889643Y-103119577D01*
X167859930Y-103270329D01*
X167854399Y-103298389D01*
X167854172Y-103302942D01*
X167854172Y-103302945D01*
X167841402Y-103559480D01*
X167841018Y-103567186D01*
X153328881Y-103567186D01*
X152181478Y-102419784D01*
X152166336Y-102401036D01*
X152165221Y-102399811D01*
X152159571Y-102391060D01*
X152151393Y-102384613D01*
X152151391Y-102384611D01*
X152133200Y-102370271D01*
X152128759Y-102366325D01*
X152128697Y-102366398D01*
X152124733Y-102363039D01*
X152121056Y-102359362D01*
X152105308Y-102348108D01*
X152100638Y-102344602D01*
X152060353Y-102312844D01*
X152051719Y-102309812D01*
X152044266Y-102304486D01*
X151995150Y-102289797D01*
X151989508Y-102287964D01*
X151948633Y-102273610D01*
X151948632Y-102273610D01*
X151941149Y-102270982D01*
X151935584Y-102270500D01*
X151932876Y-102270500D01*
X151930242Y-102270386D01*
X151930144Y-102270357D01*
X151930151Y-102270193D01*
X151929447Y-102270149D01*
X151923222Y-102268287D01*
X151869365Y-102270403D01*
X151864418Y-102270500D01*
X149874682Y-102270500D01*
X149806561Y-102250498D01*
X149780114Y-102224860D01*
X149778878Y-102225949D01*
X149773855Y-102220251D01*
X149769553Y-102213992D01*
X149651275Y-102108611D01*
X149643889Y-102104700D01*
X149517988Y-102038039D01*
X149517989Y-102038039D01*
X149511274Y-102034484D01*
X149357633Y-101995892D01*
X149350034Y-101995852D01*
X149350033Y-101995852D01*
X149284181Y-101995507D01*
X149199221Y-101995062D01*
X149191841Y-101996834D01*
X149191839Y-101996834D01*
X149052563Y-102030271D01*
X149052560Y-102030272D01*
X149045184Y-102032043D01*
X148904414Y-102104700D01*
X148859346Y-102144016D01*
X148852635Y-102149870D01*
X148788153Y-102179578D01*
X148717845Y-102169709D01*
X148680710Y-102144016D01*
X147511289Y-100974595D01*
X147477263Y-100912283D01*
X147482328Y-100841468D01*
X147524875Y-100784632D01*
X147591395Y-100759821D01*
X147600384Y-100759500D01*
X150374000Y-100759500D01*
X150377346Y-100759140D01*
X150377351Y-100759140D01*
X150425795Y-100753932D01*
X150425801Y-100753931D01*
X150429159Y-100753570D01*
X150481501Y-100742184D01*
X150508291Y-100734834D01*
X150515142Y-100730933D01*
X150515144Y-100730932D01*
X150590899Y-100687794D01*
X150596278Y-100684731D01*
X150640800Y-100646153D01*
X150647811Y-100640078D01*
X150647816Y-100640073D01*
X150649934Y-100638238D01*
X150682056Y-100604949D01*
X150728987Y-100515230D01*
X150733105Y-100501204D01*
X150747720Y-100451432D01*
X150747721Y-100451428D01*
X150748989Y-100447109D01*
X150759500Y-100374000D01*
X150759500Y-99660500D01*
X150779502Y-99592379D01*
X150833158Y-99545886D01*
X150885500Y-99534500D01*
X152524000Y-99534500D01*
X152527346Y-99534140D01*
X152527351Y-99534140D01*
X152575795Y-99528932D01*
X152575801Y-99528931D01*
X152579159Y-99528570D01*
X152583844Y-99527551D01*
X152595350Y-99525048D01*
X152631501Y-99517184D01*
X152649398Y-99512274D01*
X152650688Y-99511920D01*
X152650689Y-99511920D01*
X152658291Y-99509834D01*
X152665142Y-99505933D01*
X152665144Y-99505932D01*
X152740899Y-99462794D01*
X152746278Y-99459731D01*
X152783416Y-99427551D01*
X152797811Y-99415078D01*
X152797816Y-99415073D01*
X152799934Y-99413238D01*
X152832056Y-99379949D01*
X152878987Y-99290230D01*
X152888590Y-99257526D01*
X152897720Y-99226432D01*
X152897721Y-99226428D01*
X152898989Y-99222109D01*
X152902019Y-99201039D01*
X152908861Y-99153448D01*
X152908861Y-99153441D01*
X152909500Y-99149000D01*
X152909500Y-98675384D01*
X152929502Y-98607263D01*
X152983158Y-98560770D01*
X153053432Y-98550666D01*
X153118012Y-98580160D01*
X153124595Y-98586289D01*
X153143522Y-98605216D01*
X153158664Y-98623964D01*
X153159779Y-98625189D01*
X153165429Y-98633940D01*
X153173607Y-98640387D01*
X153173609Y-98640389D01*
X153191800Y-98654729D01*
X153196241Y-98658675D01*
X153196303Y-98658602D01*
X153200267Y-98661961D01*
X153203944Y-98665638D01*
X153219692Y-98676892D01*
X153224382Y-98680414D01*
X153230462Y-98685207D01*
X153271571Y-98743091D01*
X153275355Y-98807297D01*
X153276011Y-98807391D01*
X153265500Y-98880500D01*
X153265500Y-99197608D01*
X153265878Y-99201032D01*
X153265878Y-99201039D01*
X153270764Y-99245336D01*
X153271737Y-99254159D01*
X153283705Y-99307758D01*
X153291664Y-99335860D01*
X153295681Y-99342737D01*
X153336861Y-99413238D01*
X153342732Y-99423290D01*
X153389812Y-99476431D01*
X153391846Y-99478351D01*
X153391847Y-99478352D01*
X153416897Y-99501998D01*
X153416899Y-99502000D01*
X153423451Y-99508184D01*
X153431484Y-99512274D01*
X153508158Y-99551314D01*
X153508163Y-99551316D01*
X153513680Y-99554125D01*
X153519639Y-99555804D01*
X153519642Y-99555805D01*
X153559340Y-99566988D01*
X153582017Y-99573377D01*
X153613807Y-99577592D01*
X153650777Y-99582493D01*
X153650781Y-99582493D01*
X153655237Y-99583084D01*
X153659732Y-99583035D01*
X153659738Y-99583035D01*
X154389603Y-99575014D01*
X154824116Y-99570239D01*
X154824616Y-99570226D01*
X154824670Y-99570225D01*
X154831477Y-99570047D01*
X154831937Y-99570035D01*
X154834101Y-99569946D01*
X154834564Y-99569927D01*
X154834566Y-99569927D01*
X154839541Y-99569722D01*
X154844416Y-99568738D01*
X154844420Y-99568738D01*
X154898007Y-99557927D01*
X154919555Y-99553580D01*
X154946651Y-99543474D01*
X154983430Y-99529756D01*
X154983439Y-99529752D01*
X154986075Y-99528769D01*
X155027803Y-99508805D01*
X155093998Y-99449345D01*
X155158042Y-99418703D01*
X155228485Y-99427551D01*
X155267292Y-99453986D01*
X155710249Y-99896943D01*
X155744275Y-99959255D01*
X155746076Y-100002485D01*
X155742392Y-100030468D01*
X155740729Y-100043096D01*
X155758113Y-100200553D01*
X155812553Y-100349319D01*
X155816789Y-100355622D01*
X155816789Y-100355623D01*
X155875272Y-100442654D01*
X155900908Y-100480805D01*
X155906527Y-100485918D01*
X155906528Y-100485919D01*
X155917903Y-100496269D01*
X156018076Y-100587419D01*
X156157293Y-100663008D01*
X156310522Y-100703207D01*
X156394477Y-100704526D01*
X156461319Y-100705576D01*
X156461322Y-100705576D01*
X156468916Y-100705695D01*
X156623332Y-100670329D01*
X156693742Y-100634917D01*
X156758072Y-100602563D01*
X156758075Y-100602561D01*
X156764855Y-100599151D01*
X156770626Y-100594222D01*
X156770629Y-100594220D01*
X156879536Y-100501204D01*
X156879536Y-100501203D01*
X156885314Y-100496269D01*
X156977755Y-100367624D01*
X157036842Y-100220641D01*
X157059162Y-100063807D01*
X157059307Y-100050000D01*
X157057561Y-100035567D01*
X157046102Y-99940880D01*
X157040276Y-99892733D01*
X156984280Y-99744546D01*
X156979979Y-99738288D01*
X156976459Y-99731555D01*
X156978948Y-99730254D01*
X156960944Y-99675258D01*
X156978840Y-99606554D01*
X157031039Y-99558432D01*
X157085497Y-99545388D01*
X160228236Y-99510853D01*
X160231495Y-99510475D01*
X160231502Y-99510475D01*
X160263343Y-99506786D01*
X160281935Y-99504632D01*
X160332892Y-99493254D01*
X160358291Y-99486211D01*
X160446278Y-99436108D01*
X160470548Y-99415078D01*
X160497811Y-99391455D01*
X160497816Y-99391450D01*
X160499934Y-99389615D01*
X160532056Y-99356326D01*
X160578987Y-99266607D01*
X160585233Y-99245336D01*
X160597720Y-99202809D01*
X160597721Y-99202805D01*
X160598989Y-99198486D01*
X160605465Y-99153448D01*
X160608861Y-99129825D01*
X160608861Y-99129818D01*
X160609500Y-99125377D01*
X160609500Y-97359195D01*
X160629502Y-97291074D01*
X160683158Y-97244581D01*
X160735073Y-97233196D01*
X161733376Y-97229809D01*
X161733377Y-97229809D01*
X161736600Y-97229798D01*
X161762927Y-97227007D01*
X161786049Y-97224557D01*
X161786056Y-97224556D01*
X161789253Y-97224217D01*
X161792400Y-97223554D01*
X161792416Y-97223551D01*
X161818402Y-97218072D01*
X161889183Y-97223590D01*
X161945746Y-97266499D01*
X161970130Y-97333177D01*
X161970395Y-97341944D01*
X161966152Y-98258616D01*
X161966100Y-98269745D01*
X161972441Y-98327973D01*
X161984860Y-98383104D01*
X161993425Y-98412770D01*
X161997554Y-98419706D01*
X161997556Y-98419710D01*
X162033038Y-98479309D01*
X162045220Y-98499772D01*
X162092741Y-98552519D01*
X162126647Y-98583993D01*
X162134709Y-98588013D01*
X162134711Y-98588015D01*
X162169203Y-98605216D01*
X162217256Y-98629180D01*
X162285751Y-98647861D01*
X162290214Y-98648415D01*
X162290220Y-98648416D01*
X162327567Y-98653050D01*
X162359049Y-98656956D01*
X171214695Y-98485714D01*
X171217713Y-98485363D01*
X171217717Y-98485363D01*
X171236395Y-98483192D01*
X171264300Y-98479949D01*
X171311492Y-98469788D01*
X171315520Y-98468739D01*
X171325691Y-98466089D01*
X171325695Y-98466088D01*
X171332997Y-98464185D01*
X171422139Y-98416168D01*
X171447507Y-98395212D01*
X171473401Y-98373822D01*
X171473403Y-98373820D01*
X171476875Y-98370952D01*
X171526546Y-98316286D01*
X171535426Y-98303160D01*
X173098842Y-95992023D01*
X173153578Y-95946807D01*
X173224071Y-95938362D01*
X173287939Y-95969368D01*
X173324905Y-96029982D01*
X173329206Y-96062772D01*
X173326990Y-97917702D01*
X173320554Y-103303743D01*
X173320055Y-103314792D01*
X173320034Y-103315026D01*
X173316542Y-103326930D01*
X173317871Y-103339266D01*
X173316853Y-103350672D01*
X173316683Y-103362750D01*
X173269008Y-103712375D01*
X173266888Y-103723890D01*
X173242080Y-103830548D01*
X173180189Y-104096636D01*
X173177008Y-104107910D01*
X173056064Y-104471002D01*
X173051849Y-104481932D01*
X172897711Y-104832213D01*
X172892499Y-104842704D01*
X172706494Y-105177159D01*
X172700342Y-105187105D01*
X172484065Y-105502861D01*
X172477009Y-105512199D01*
X172232358Y-105806485D01*
X172224459Y-105815135D01*
X171953532Y-106085432D01*
X171944879Y-106093297D01*
X171650017Y-106337267D01*
X171640654Y-106344306D01*
X171324411Y-106559836D01*
X171314436Y-106565976D01*
X171195199Y-106631926D01*
X170979545Y-106751203D01*
X170969046Y-106756388D01*
X170960142Y-106760281D01*
X170618400Y-106909712D01*
X170607461Y-106913900D01*
X170244093Y-107033996D01*
X170232821Y-107037149D01*
X170075090Y-107073449D01*
X169859870Y-107122979D01*
X169848344Y-107125073D01*
X169658687Y-107150485D01*
X169469023Y-107175898D01*
X169457365Y-107176910D01*
X169307786Y-107182925D01*
X169074973Y-107192286D01*
X169063260Y-107192212D01*
X168838199Y-107180315D01*
X168710679Y-107173574D01*
X168699360Y-107171581D01*
X168687602Y-107170409D01*
X168675730Y-107166793D01*
X168663379Y-107167995D01*
X168663377Y-107167995D01*
X168643830Y-107169898D01*
X168631562Y-107170491D01*
X167653560Y-107170016D01*
X142710915Y-107157912D01*
X142699890Y-107157418D01*
X142688001Y-107153930D01*
X142675658Y-107155260D01*
X142664795Y-107154290D01*
X142652145Y-107154121D01*
X142376513Y-107116960D01*
X142317642Y-107109023D01*
X142306485Y-107107004D01*
X141948090Y-107025344D01*
X141937160Y-107022331D01*
X141587538Y-106908778D01*
X141576924Y-106904794D01*
X141238941Y-106760281D01*
X141228727Y-106755359D01*
X140967166Y-106614478D01*
X140905090Y-106581043D01*
X140895378Y-106575233D01*
X140588710Y-106372523D01*
X140579556Y-106365861D01*
X140292364Y-106136416D01*
X140283835Y-106128950D01*
X140238423Y-106085432D01*
X140018432Y-105874619D01*
X140010608Y-105866414D01*
X139769140Y-105589253D01*
X139762084Y-105580378D01*
X139712721Y-105512199D01*
X139593224Y-105347156D01*
X139546514Y-105282642D01*
X139540285Y-105273169D01*
X139352346Y-104957253D01*
X139346994Y-104947258D01*
X139188221Y-104615743D01*
X139183788Y-104605308D01*
X139055450Y-104260838D01*
X139051974Y-104250046D01*
X138955124Y-103895449D01*
X138952632Y-103884389D01*
X138896833Y-103571742D01*
X138888047Y-103522515D01*
X138886560Y-103511282D01*
X138884485Y-103487383D01*
X138857368Y-103175035D01*
X138857802Y-103162345D01*
X138857349Y-103151470D01*
X138859262Y-103139210D01*
X138856337Y-103127151D01*
X138855873Y-103116001D01*
X138854500Y-103104513D01*
X138854500Y-82805500D01*
X138874502Y-82737379D01*
X138928158Y-82690886D01*
X138980500Y-82679500D01*
X173219045Y-82679500D01*
X173287166Y-82699502D01*
G37*
%TD.AperFunction*%
%TD*%
M02*
