%TF.GenerationSoftware,KiCad,Pcbnew,(6.0.6)*%
%TF.CreationDate,2022-10-10T16:19:53+08:00*%
%TF.ProjectId,NMOS_SWITCH,4e4d4f53-5f53-4574-9954-43482e6b6963,rev?*%
%TF.SameCoordinates,Original*%
%TF.FileFunction,Soldermask,Top*%
%TF.FilePolarity,Negative*%
%FSLAX46Y46*%
G04 Gerber Fmt 4.6, Leading zero omitted, Abs format (unit mm)*
G04 Created by KiCad (PCBNEW (6.0.6)) date 2022-10-10 16:19:53*
%MOMM*%
%LPD*%
G01*
G04 APERTURE LIST*
G04 Aperture macros list*
%AMRoundRect*
0 Rectangle with rounded corners*
0 $1 Rounding radius*
0 $2 $3 $4 $5 $6 $7 $8 $9 X,Y pos of 4 corners*
0 Add a 4 corners polygon primitive as box body*
4,1,4,$2,$3,$4,$5,$6,$7,$8,$9,$2,$3,0*
0 Add four circle primitives for the rounded corners*
1,1,$1+$1,$2,$3*
1,1,$1+$1,$4,$5*
1,1,$1+$1,$6,$7*
1,1,$1+$1,$8,$9*
0 Add four rect primitives between the rounded corners*
20,1,$1+$1,$2,$3,$4,$5,0*
20,1,$1+$1,$4,$5,$6,$7,0*
20,1,$1+$1,$6,$7,$8,$9,0*
20,1,$1+$1,$8,$9,$2,$3,0*%
%AMFreePoly0*
4,1,17,2.675000,1.605000,1.875000,1.605000,1.875000,0.935000,2.675000,0.935000,2.675000,0.335000,1.875000,0.335000,1.875000,-0.335000,2.675000,-0.335000,2.675000,-0.935000,1.875000,-0.935000,1.875000,-1.605000,2.675000,-1.605000,2.675000,-2.205000,-1.875000,-2.205000,-1.875000,2.205000,2.675000,2.205000,2.675000,1.605000,2.675000,1.605000,$1*%
G04 Aperture macros list end*
%ADD10C,3.000000*%
%ADD11C,0.100000*%
%ADD12R,3.000000X3.000000*%
%ADD13C,3.000000*%
%ADD14RoundRect,0.135000X-0.135000X-0.185000X0.135000X-0.185000X0.135000X0.185000X-0.135000X0.185000X0*%
%ADD15RoundRect,0.135000X0.135000X0.185000X-0.135000X0.185000X-0.135000X-0.185000X0.135000X-0.185000X0*%
%ADD16FreePoly0,0.000000*%
%ADD17R,0.850000X0.500000*%
%ADD18R,2.200000X0.800000*%
%ADD19R,6.400000X5.800000*%
%ADD20C,3.200000*%
%ADD21RoundRect,0.250000X0.475000X-0.250000X0.475000X0.250000X-0.475000X0.250000X-0.475000X-0.250000X0*%
%ADD22RoundRect,0.135000X0.185000X-0.135000X0.185000X0.135000X-0.185000X0.135000X-0.185000X-0.135000X0*%
%ADD23RoundRect,0.218750X0.218750X0.256250X-0.218750X0.256250X-0.218750X-0.256250X0.218750X-0.256250X0*%
%ADD24RoundRect,0.135000X-0.185000X0.135000X-0.185000X-0.135000X0.185000X-0.135000X0.185000X0.135000X0*%
%ADD25R,1.100000X1.100000*%
%ADD26RoundRect,0.150000X-0.587500X-0.150000X0.587500X-0.150000X0.587500X0.150000X-0.587500X0.150000X0*%
%ADD27RoundRect,0.150000X0.512500X0.150000X-0.512500X0.150000X-0.512500X-0.150000X0.512500X-0.150000X0*%
%ADD28RoundRect,0.150000X0.150000X-0.512500X0.150000X0.512500X-0.150000X0.512500X-0.150000X-0.512500X0*%
%ADD29RoundRect,0.140000X0.170000X-0.140000X0.170000X0.140000X-0.170000X0.140000X-0.170000X-0.140000X0*%
%ADD30RoundRect,1.500000X1.500000X1.500000X-1.500000X1.500000X-1.500000X-1.500000X1.500000X-1.500000X0*%
%ADD31C,6.000000*%
%ADD32RoundRect,1.500000X-1.500000X-1.500000X1.500000X-1.500000X1.500000X1.500000X-1.500000X1.500000X0*%
G04 APERTURE END LIST*
D10*
X168300000Y-92800000D02*
X164975000Y-96125000D01*
D11*
G36*
X161550000Y-93400000D02*
G01*
X161525000Y-96975000D01*
X160175000Y-96925000D01*
X160175000Y-93375000D01*
X161550000Y-93400000D01*
G37*
X161550000Y-93400000D02*
X161525000Y-96975000D01*
X160175000Y-96925000D01*
X160175000Y-93375000D01*
X161550000Y-93400000D01*
D10*
X151275000Y-87350000D02*
X161325000Y-87375000D01*
X168300000Y-87425000D02*
X168300000Y-92800000D01*
X143475000Y-91275000D02*
X143475000Y-87875000D01*
X148150000Y-97175000D02*
X143550000Y-91500000D01*
D12*
%TO.C,J1*%
X142325000Y-103300000D03*
D13*
X142325000Y-98300000D03*
%TD*%
D14*
%TO.C,R10*%
X146690000Y-104000000D03*
X147710000Y-104000000D03*
%TD*%
%TO.C,R11*%
X146590000Y-105275000D03*
X147610000Y-105275000D03*
%TD*%
D15*
%TO.C,R8*%
X162960000Y-103825000D03*
X161940000Y-103825000D03*
%TD*%
D16*
%TO.C,Q2*%
X164500000Y-95900000D03*
D17*
X160950000Y-93995000D03*
X160950000Y-95265000D03*
X160950000Y-96535000D03*
X160950000Y-97805000D03*
%TD*%
D18*
%TO.C,U1*%
X155550000Y-98330000D03*
X155550000Y-97190000D03*
D19*
X149250000Y-96050000D03*
D18*
X155550000Y-94910000D03*
X155550000Y-93770000D03*
%TD*%
D20*
%TO.C,H1*%
X169700000Y-103525000D03*
%TD*%
D21*
%TO.C,C1*%
X153975000Y-104750000D03*
X153975000Y-102850000D03*
%TD*%
D22*
%TO.C,R1*%
X146050000Y-101110000D03*
X146050000Y-100090000D03*
%TD*%
D23*
%TO.C,D3*%
X166037500Y-106325000D03*
X164462500Y-106325000D03*
%TD*%
D24*
%TO.C,R2*%
X147750000Y-100015000D03*
X147750000Y-101035000D03*
%TD*%
D22*
%TO.C,R4*%
X154375000Y-101135000D03*
X154375000Y-100115000D03*
%TD*%
D25*
%TO.C,D2*%
X157725000Y-102900000D03*
X157725000Y-105700000D03*
%TD*%
D24*
%TO.C,R6*%
X157700000Y-100215000D03*
X157700000Y-101235000D03*
%TD*%
D26*
%TO.C,Q1*%
X149387500Y-104650000D03*
X149387500Y-106550000D03*
X151262500Y-105600000D03*
%TD*%
D27*
%TO.C,U2*%
X164137500Y-102150000D03*
X164137500Y-101200000D03*
X164137500Y-100250000D03*
X161862500Y-100250000D03*
X161862500Y-101200000D03*
X161862500Y-102150000D03*
%TD*%
D28*
%TO.C,U3*%
X149450000Y-102837500D03*
X150400000Y-102837500D03*
X151350000Y-102837500D03*
X151350000Y-100562500D03*
X149450000Y-100562500D03*
%TD*%
D22*
%TO.C,R5*%
X158850000Y-101260000D03*
X158850000Y-100240000D03*
%TD*%
D14*
%TO.C,R7*%
X161915000Y-106275000D03*
X162935000Y-106275000D03*
%TD*%
D29*
%TO.C,C2*%
X165675000Y-100905000D03*
X165675000Y-99945000D03*
%TD*%
D30*
%TO.C,J2*%
X151025000Y-87550000D03*
D31*
X143825000Y-87550000D03*
%TD*%
D32*
%TO.C,J3*%
X161025000Y-87400000D03*
D31*
X168225000Y-87400000D03*
%TD*%
D15*
%TO.C,R9*%
X147710000Y-102650000D03*
X146690000Y-102650000D03*
%TD*%
M02*
